<svg id="OBJECTS" xmlns="http://www.w3.org/2000/svg" xmlns:xlink="http://www.w3.org/1999/xlink" viewBox="0 0 472.7 462"><defs><style>.cls-1{fill:none;}.cls-2{opacity:0.7;}.cls-3{fill:#e1f0ff;}.cls-4{clip-path:url(#clip-path);}.cls-5{fill:#8e3e30;}.cls-6{fill:#723021;}.cls-7{fill:#86c1e2;}.cls-8{fill:#67b2d3;opacity:0.5;}.cls-9{fill:#2c2429;}.cls-10{fill:#5e1d12;}.cls-11{fill:#fff;}.cls-12{fill:#161114;}</style><clipPath id="clip-path" transform="translate(-120.37 -20.15)"><path id="SVGID" class="cls-1" d="M120.44,247.22q2.18-97.08,68.89-163.7Q233.78,39.08,296,25.73a244.67,244.67,0,0,1,123.71,5.19q61.46,18.54,105.92,63Q590.78,159.06,593,247.21T522.65,407.94Q451.52,479.07,355.25,482T189.32,415.37Q118.21,344.26,120.44,247.22Z"/></clipPath></defs><g class="cls-2"><path class="cls-3" d="M120.44,247.22q2.18-97.08,68.89-163.7Q233.78,39.08,296,25.73a244.67,244.67,0,0,1,123.71,5.19q61.46,18.54,105.92,63Q590.78,159.06,593,247.21T522.65,407.94Q451.52,479.07,355.25,482T189.32,415.37Q118.21,344.26,120.44,247.22Z" transform="translate(-120.37 -20.15)"/></g><g class="cls-4"><path class="cls-5" d="M395.46,349.94c-15.8-12.42-1.13-83.54-1.13-83.54H304.77s14.67,71.12-1.13,83.54-135.47,11.29-124.19,131H519.64C530.93,361.23,411.27,362.36,395.46,349.94Z" transform="translate(-120.37 -20.15)"/><path class="cls-6" d="M390.9,342.84c-7.82-21.9,3.43-76.44,3.43-76.44H304.77s6,29.32,6.18,53.6C333.51,336.34,361.84,342.81,390.9,342.84Z" transform="translate(-120.37 -20.15)"/><path class="cls-7" d="M406.75,351.55l-.4-15.53-106.58-2.45-.09,14.84c-150,19.93-122.14,132.49-122.14,132.49L348.88,482h1.34l171.34-1.12S548.36,383.85,406.75,351.55Z" transform="translate(-120.37 -20.15)"/><path class="cls-8" d="M419.7,452.17c-53.23-6.64-109.84-16.06-159-38.54-17.55-8-35-18.18-52.8-27.67-45.81,39.79-30.39,94.94-30.39,94.94L348.88,482h1.34l171.34-1.12a89.68,89.68,0,0,0,2.49-21.11C489.19,458.74,454.39,456.49,419.7,452.17Z" transform="translate(-120.37 -20.15)"/><path class="cls-6" d="M254.62,228.49C258.83,243.9,270.69,257.57,280,255s12.58-20.34,8.37-35.75-14.3-22.61-23.62-20.06S250.41,213.08,254.62,228.49Z" transform="translate(-120.37 -20.15)"/><path class="cls-6" d="M444.48,228.49c-4.21,15.41-16.07,29.08-25.39,26.53s-12.58-20.34-8.37-35.75,14.3-22.61,23.62-20.06S448.69,213.08,444.48,228.49Z" transform="translate(-120.37 -20.15)"/><path class="cls-5" d="M272.24,200.86c0,56.43,34.88,114,77.9,114S428,257.29,428,200.86s-34.87-90.31-77.89-90.31S272.24,144.43,272.24,200.86Z" transform="translate(-120.37 -20.15)"/><path class="cls-9" d="M409.55,154s-2.83,26,11.85,30.48c0,0-10.49,92.1-24.54,98.31-16.9,7.46,3.39-35.47-24.82-32-32,3.92-58.79-11.11-60.42,19.27-1.47,27.35-28.09,3.92-31.36-50-.49-8.21-1-14.49-1.51-19.22l-1.85-26c22-9.6,30.48-50.24,30.48-50.24s-17-36.84-44-7.34c-24.27,26.53-1.69,83-1.69,83,4.73-1.06,7.75,7.22,9.62,16.35l-.16,2.13s1.58,22.88,3.27,50.3c2.61,42.46,19.27,63,78.05,63.36,53.33.3,73-18.55,75.12-110.39,2.62-29.4,5.23-43.71,5.23-61.4C432.79,137.5,409.55,154,409.55,154ZM367.47,299.78c-8.09-1.5-9.8-13.39-9.8-13.39l-14-1s-.59,13.86-11.76,13.39c-15.35-.65-11.11-35.27-11.11-35.27,17.64,3.59,30.38-2,30.38-2,17.31,7.84,29.39,3.92,29.39,3.92C382.49,290.63,376.29,301.41,367.47,299.78Z" transform="translate(-120.37 -20.15)"/><path class="cls-9" d="M292.68,125.37s26.12,35.93,83.61,45.07l-23.52-18.28s64.67,28.74,86.22-1.31,8.49-59.44,8.49-59.44-1.3,20.25-9.79,24.82c0,0,13.71-27.44-8.49-47.68,0,0,1.95,22.86-13.07,23.51s-97.33-74.47-130,15.68S292.68,125.37,292.68,125.37Z" transform="translate(-120.37 -20.15)"/><path class="cls-10" d="M256.39,221.93a29.91,29.91,0,0,1,.39-6,16.8,16.8,0,0,1,.78-3,5.83,5.83,0,0,1,1.9-2.74,3,3,0,0,1,1.89-.51,4.15,4.15,0,0,1,1.76.56,7.22,7.22,0,0,1,2.41,2.31,22.91,22.91,0,0,1,2.59,5.61c.63,1.92,1.13,3.87,1.56,5.82s.75,3.92,1.05,5.89q.84,5.91,1.1,11.87l0,.47-.37.23a10.64,10.64,0,0,0-2.49,2,3,3,0,0,0-.92,2.67,4.43,4.43,0,0,0,2.19,2.21,19.38,19.38,0,0,0,3.16,1.35,16.91,16.91,0,0,1-3.38-.91,7,7,0,0,1-1.59-.86,3.61,3.61,0,0,1-1.22-1.49,3,3,0,0,1-.08-2,5.36,5.36,0,0,1,.87-1.72,11.92,11.92,0,0,1,2.65-2.56l-.35.69c-.47-3.89-1-7.79-1.7-11.65-.32-1.93-.68-3.85-1.1-5.76s-.86-3.79-1.43-5.63a23,23,0,0,0-2.16-5.21,5.85,5.85,0,0,0-1.7-1.88,1.75,1.75,0,0,0-1.94-.24,4.51,4.51,0,0,0-1.58,1.95,16.78,16.78,0,0,0-1,2.67A44.3,44.3,0,0,0,256.39,221.93Z" transform="translate(-120.37 -20.15)"/><path class="cls-10" d="M442.66,221.93a46,46,0,0,0-1.27-5.75,18.94,18.94,0,0,0-1-2.67,4.59,4.59,0,0,0-1.59-1.95,1.75,1.75,0,0,0-1.94.24,5.85,5.85,0,0,0-1.7,1.88,23,23,0,0,0-2.16,5.21c-.57,1.84-1,3.73-1.43,5.63s-.78,3.83-1.1,5.76c-.66,3.86-1.23,7.76-1.7,11.65l-.52-.77a6.58,6.58,0,0,1,2.92,2.12,3.26,3.26,0,0,1,.64,1.82,3.56,3.56,0,0,1-.47,1.79,8.15,8.15,0,0,1-2.29,2.48,20,20,0,0,1-2.76,1.75,27.53,27.53,0,0,0,2.43-2.12,8.39,8.39,0,0,0,1.81-2.49,2.26,2.26,0,0,0-.33-2.48,5.41,5.41,0,0,0-2.41-1.43l-.55-.17,0-.61q.25-6,1.1-11.87c.3-2,.64-3.93,1.05-5.89s.93-3.9,1.56-5.82a23.28,23.28,0,0,1,2.59-5.61,7.16,7.16,0,0,1,2.42-2.31,4.06,4.06,0,0,1,1.75-.56,3,3,0,0,1,1.89.51,5.83,5.83,0,0,1,1.9,2.74,16,16,0,0,1,.78,3A29.91,29.91,0,0,1,442.66,221.93Z" transform="translate(-120.37 -20.15)"/><path class="cls-10" d="M354.56,199.23c1.69,3.86,3.17,7.81,4.52,11.81.67,2,1.29,4,1.9,6s1.13,4.07,1.65,6.11a121.91,121.91,0,0,1,2.45,12.46q.46,3.15.63,6.34a47.29,47.29,0,0,1,0,6.41l-.05.62-.56.11c-5.23,1-10.48,2-15.76,2.8,5.1-1.59,10.24-3,15.4-4.34l-.61.73a78.33,78.33,0,0,0-1-12.38c-.65-4.11-1.45-8.21-2.37-12.29s-1.91-8.15-2.95-12.21S355.66,203.3,354.56,199.23Z" transform="translate(-120.37 -20.15)"/><path class="cls-11" d="M321.42,267.77s26.45,26.46,57.48,1" transform="translate(-120.37 -20.15)"/><path class="cls-12" d="M357.62,196.35a25.61,25.61,0,0,1,4.05-6.66,27.83,27.83,0,0,1,5.88-5.36A25.34,25.34,0,0,1,383,179.91a33.29,33.29,0,0,1,15.21,4.76,47.38,47.38,0,0,1,11.9,10,117.12,117.12,0,0,0-13.27-7.32,39.49,39.49,0,0,0-14-3.6,26.81,26.81,0,0,0-13.75,3.15A34.5,34.5,0,0,0,363,191,41.81,41.81,0,0,0,357.62,196.35Z" transform="translate(-120.37 -20.15)"/><path class="cls-12" d="M287.62,196.35a25.37,25.37,0,0,1,4.06-6.66,27.59,27.59,0,0,1,5.88-5.36A25.31,25.31,0,0,1,313,179.91a33.25,33.25,0,0,1,15.21,4.76,47.43,47.43,0,0,1,11.91,10,118,118,0,0,0-13.27-7.32,39.49,39.49,0,0,0-14-3.6,26.85,26.85,0,0,0-13.76,3.15A34.87,34.87,0,0,0,293,191,41.81,41.81,0,0,0,287.62,196.35Z" transform="translate(-120.37 -20.15)"/><path class="cls-12" d="M320,212.34c0,6.13-1.7,11.1-3.79,11.1s-3.79-5-3.79-11.1,1.7-11.1,3.79-11.1S320,206.21,320,212.34Z" transform="translate(-120.37 -20.15)"/><path class="cls-12" d="M386.22,210.83c0,6.13-1.7,11.1-3.8,11.1s-3.79-5-3.79-11.1,1.7-11.1,3.79-11.1S386.22,204.7,386.22,210.83Z" transform="translate(-120.37 -20.15)"/></g></svg>