<svg id="OBJECTS" xmlns="http://www.w3.org/2000/svg" xmlns:xlink="http://www.w3.org/1999/xlink" viewBox="0 0 477.84 478.92"><defs><style>.cls-1{fill:none;}.cls-2{opacity:0.2;}.cls-3{fill:#c1db4d;}.cls-4{clip-path:url(#clip-path);}.cls-5{fill:#f89b6a;}.cls-6{fill:#ef8050;}.cls-7{fill:#2c2429;}.cls-8{fill:#db5223;}.cls-9{fill:#161114;}.cls-10{fill:#d84848;}</style><clipPath id="clip-path" transform="translate(-119.96 -12.18)"><path class="cls-1" d="M188.84,417.93q-69-72.09-68.88-169,0-64.59,35.49-119.47A251.41,251.41,0,0,1,249.1,43.4q58.13-31.2,122.69-31.22,94.7,0,160.35,62.43T597.8,242.5q0,103.33-67.79,175.43T361,490.05Q257.73,490.05,188.84,417.93Z"/></clipPath></defs><g class="cls-2"><path class="cls-3" d="M188.84,417.93q-69-72.09-68.88-169,0-64.59,35.49-119.47A251.41,251.41,0,0,1,249.1,43.4q58.13-31.2,122.69-31.22,94.7,0,160.35,62.43T597.8,242.5q0,103.33-67.79,175.43T361,490.05Q257.73,490.05,188.84,417.93Z" transform="translate(-119.96 -12.18)"/></g><g class="cls-4"><path class="cls-5" d="M403.54,354c-16.36-12.86-1.17-86.5-1.17-86.5H309.63s15.2,73.64-1.17,86.5-140.27,11.69-128.58,135.6H532.12C543.81,365.65,419.91,366.82,403.54,354Z" transform="translate(-119.96 -12.18)"/><path class="cls-6" d="M398.81,346.61c-8.09-22.68,3.56-79.15,3.56-79.15H309.63s6.26,30.36,6.41,55.5C339.39,339.88,368.73,346.57,398.81,346.61Z" transform="translate(-119.96 -12.18)"/><path class="cls-6" d="M257.71,233c4.36,16,16.64,30.1,26.29,27.47s13-21.07,8.67-37-14.81-23.4-24.46-20.76S253.35,217,257.71,233Z" transform="translate(-119.96 -12.18)"/><path class="cls-6" d="M454.3,233c-4.37,16-16.64,30.1-26.3,27.47s-13-21.07-8.66-37,14.81-23.4,24.46-20.76S458.66,217,454.3,233Z" transform="translate(-119.96 -12.18)"/><path class="cls-5" d="M276,204.34c0,58.42,36.12,118.06,80.66,118.06s80.66-59.64,80.66-118.06-36.11-93.52-80.66-93.52S276,145.91,276,204.34Z" transform="translate(-119.96 -12.18)"/><path class="cls-7" d="M285.45,242.91l-7.6.59s-2.33-42.09-12.85-39.75c0,0-23.38-58.45,1.75-85.92,27.95-30.54,45.59,7.6,45.59,7.6s-8.77,42.08-31.56,52Z" transform="translate(-119.96 -12.18)"/><path class="cls-7" d="M418.13,155.83s-2.93,26.88,12.27,31.56v47.92l4.68,1.17s9.35-47.92,9.35-71.89S418.13,155.83,418.13,155.83Z" transform="translate(-119.96 -12.18)"/><path class="cls-7" d="M305.91,136.54s24.55,45,97,40.91c0,0-49.1-8.77-69-35.65,0,0,34.49,36.82,94.69,31l-9.36-13.44s11.69,22.8,38,14c0,0,6.43-76.57-74.22-99.94-65.77-19.07-97,33.31-95.27,62.53S305.91,136.54,305.91,136.54Z" transform="translate(-119.96 -12.18)"/><path class="cls-7" d="M287.2,180.37a66.4,66.4,0,0,0,8.14-10.05,74.87,74.87,0,0,0,6.22-11.3l.66-1.47c.22-.49.39-1,.59-1.5.37-1,.77-2,1.12-3,.6-2.06,1.31-4.08,1.72-6.19a70.5,70.5,0,0,0,1.76-12.68l.48-7.32,1.18,7.25a31,31,0,0,0,1.62,5.7,42.65,42.65,0,0,0,2.5,5.46,53.3,53.3,0,0,0,6.95,9.81,66.8,66.8,0,0,0,19.06,14.69,108.65,108.65,0,0,0,22.7,8.64l6,1.4c2,.39,4,.83,6,1.18s4,.67,6,1l6.08.78-6.12-.43c-2-.19-4.07-.45-6.1-.68s-4.05-.61-6.08-.92-4-.81-6-1.22-4-1-6-1.54-3.95-1.14-5.88-1.86a82.94,82.94,0,0,1-11.37-4.84,68.75,68.75,0,0,1-19.69-14.91,53.07,53.07,0,0,1-7.12-10.21,45.45,45.45,0,0,1-2.55-5.7,31.32,31.32,0,0,1-1.65-6.1l1.66-.07a65.29,65.29,0,0,1-2,13c-.48,2.14-1.26,4.19-1.93,6.26-.39,1-.82,2-1.23,3-.21.5-.4,1-.63,1.51l-.72,1.47c-.91,2-2,3.88-3.06,5.78L297.76,168c-.61.91-1.25,1.78-1.88,2.67A60.06,60.06,0,0,1,287.2,180.37Z" transform="translate(-119.96 -12.18)"/><path class="cls-7" d="M255.06,127.77a58.51,58.51,0,0,1,6.8-11.13,39.43,39.43,0,0,1,9.49-9,24.15,24.15,0,0,1,6-2.82A19.67,19.67,0,0,1,284,104a24.42,24.42,0,0,1,12.37,4.54l-.94.32a54.51,54.51,0,0,1,5.82-11.72A60.63,60.63,0,0,1,309.39,87a61.45,61.45,0,0,1,21.89-14.08,75.49,75.49,0,0,1,25.62-4.62,113.93,113.93,0,0,1,25.85,2.93,101.76,101.76,0,0,1,24.45,8.85,96.77,96.77,0,0,1,21.21,15A103.06,103.06,0,0,1,445,115a110.75,110.75,0,0,1,6.33,11.31,82.82,82.82,0,0,1,4.77,12A88.72,88.72,0,0,0,451,126.45a109.23,109.23,0,0,0-6.59-11.08A106.63,106.63,0,0,0,427.59,96a99.22,99.22,0,0,0-45.22-23,112.46,112.46,0,0,0-25.44-2.75,74.07,74.07,0,0,0-25,4.39,59.76,59.76,0,0,0-21.36,13.58A63.87,63.87,0,0,0,302.4,98a53.51,53.51,0,0,0-5.84,11.29l-.28.79-.66-.46a23.27,23.27,0,0,0-11.74-4.53,20.58,20.58,0,0,0-12.13,3.22,38.9,38.9,0,0,0-9.57,8.63A61.67,61.67,0,0,0,255.06,127.77Z" transform="translate(-119.96 -12.18)"/><path class="cls-8" d="M259.54,226.16a34.22,34.22,0,0,1,.59-6.13,16.11,16.11,0,0,1,.86-3,5.86,5.86,0,0,1,1.9-2.67,2.81,2.81,0,0,1,1.76-.47,4,4,0,0,1,1.67.55,7.12,7.12,0,0,1,2.36,2.3,24.37,24.37,0,0,1,2.6,5.73A78.56,78.56,0,0,1,274,234.52q.92,6.1,1.24,12.25V247l-.21.15a9,9,0,0,0-2.73,2.89,3.26,3.26,0,0,0-.4,1.82,3,3,0,0,0,.82,1.68,9.61,9.61,0,0,0,3.49,2.12,34.46,34.46,0,0,0,4,1.24,28.23,28.23,0,0,1-4.12-.95,10,10,0,0,1-3.78-2,3.65,3.65,0,0,1-1.1-2,4,4,0,0,1,.39-2.26,9.88,9.88,0,0,1,2.89-3.3l-.2.41c-.44-4-1-8.09-1.65-12.11-.33-2-.7-4-1.13-6s-.91-4-1.51-5.88a24.19,24.19,0,0,0-2.32-5.47,6.42,6.42,0,0,0-1.9-2,2.15,2.15,0,0,0-2.36-.22,5,5,0,0,0-1.7,2.19,20.21,20.21,0,0,0-1,2.83A42.93,42.93,0,0,0,259.54,226.16Z" transform="translate(-119.96 -12.18)"/><path class="cls-8" d="M452.42,226.16a41.54,41.54,0,0,0-1.15-6,20.18,20.18,0,0,0-1-2.83,5,5,0,0,0-1.7-2.19,2.14,2.14,0,0,0-2.36.22,6.42,6.42,0,0,0-1.9,2,23.78,23.78,0,0,0-2.33,5.47c-.6,1.92-1.08,3.89-1.5,5.88s-.8,4-1.13,6c-.67,4-1.21,8.07-1.66,12.11l-.2-.41a9.66,9.66,0,0,1,2.89,3.3,4,4,0,0,1,.4,2.26,3.6,3.6,0,0,1-1.11,2,9.91,9.91,0,0,1-3.78,2,27.65,27.65,0,0,1-4.12.95,34,34,0,0,0,4-1.24,9.48,9.48,0,0,0,3.48-2.12,3,3,0,0,0,.83-1.68,3.36,3.36,0,0,0-.41-1.82,8.94,8.94,0,0,0-2.72-2.89l-.22-.15,0-.27q.32-6.15,1.24-12.25a77.4,77.4,0,0,1,2.68-12.06,24,24,0,0,1,2.6-5.73,7.12,7.12,0,0,1,2.36-2.3,4,4,0,0,1,1.66-.55,2.77,2.77,0,0,1,1.76.47A6,6,0,0,1,451,217a15.35,15.35,0,0,1,.85,3A33.34,33.34,0,0,1,452.42,226.16Z" transform="translate(-119.96 -12.18)"/><path class="cls-8" d="M360.85,204.34a107.37,107.37,0,0,0-.66,13.4A87.79,87.79,0,0,0,361.28,231a55.48,55.48,0,0,0,3.56,12.72,42.4,42.4,0,0,0,3.07,5.81,34.69,34.69,0,0,0,4.07,5.14l.62.65-.72.45q-3.92,2.47-7.86,4.87c-2.65,1.58-5.26,3.2-7.94,4.73,2.45-1.86,5-3.64,7.46-5.46s5-3.57,7.55-5.32l-.1,1.1a33.81,33.81,0,0,1-7.83-11.24,51.08,51.08,0,0,1-3.65-13.17c-.31-2.26-.5-4.52-.61-6.79s-.06-4.53.05-6.79.32-4.51.65-6.74A59.31,59.31,0,0,1,360.85,204.34Z" transform="translate(-119.96 -12.18)"/><path class="cls-8" d="M331.63,278a81.72,81.72,0,0,0,13.21,3.95,64.15,64.15,0,0,0,13.57,1.47,43.94,43.94,0,0,0,6.79-.47c1.13-.12,2.23-.36,3.35-.57s2.21-.51,3.29-.85a40.8,40.8,0,0,0,6.38-2.46,47.75,47.75,0,0,0,6-3.41,34.74,34.74,0,0,1-11.93,7.26,40.48,40.48,0,0,1-13.88,2.38,52.2,52.2,0,0,1-13.92-1.93A51.62,51.62,0,0,1,331.63,278Z" transform="translate(-119.96 -12.18)"/><path class="cls-9" d="M364.36,199.66a26.64,26.64,0,0,1,4.23-6.86,28.6,28.6,0,0,1,6.09-5.51,26.29,26.29,0,0,1,15.95-4.55,34.56,34.56,0,0,1,15.72,4.9,49.66,49.66,0,0,1,12.36,10.27,117.81,117.81,0,0,0-13.7-7.66,40.94,40.94,0,0,0-14.53-3.75,27.83,27.83,0,0,0-14.29,3.29,35.64,35.64,0,0,0-6.3,4.3A42.2,42.2,0,0,0,364.36,199.66Z" transform="translate(-119.96 -12.18)"/><path class="cls-9" d="M291.88,199.66a27,27,0,0,1,4.24-6.86,28.6,28.6,0,0,1,6.09-5.51,26.29,26.29,0,0,1,16-4.55,34.52,34.52,0,0,1,15.71,4.9,49.7,49.7,0,0,1,12.37,10.27,117.93,117.93,0,0,0-13.71-7.66A40.83,40.83,0,0,0,318,186.5a27.79,27.79,0,0,0-14.28,3.29,35.64,35.64,0,0,0-6.3,4.3A42.89,42.89,0,0,0,291.88,199.66Z" transform="translate(-119.96 -12.18)"/><path class="cls-9" d="M325.45,216.22c0,6.35-1.76,11.49-3.93,11.49s-3.92-5.14-3.92-11.49,1.75-11.49,3.92-11.49S325.45,209.87,325.45,216.22Z" transform="translate(-119.96 -12.18)"/><path class="cls-9" d="M394,214.66c0,6.35-1.76,11.5-3.93,11.5s-3.93-5.15-3.93-11.5,1.76-11.49,3.93-11.49S394,208.31,394,214.66Z" transform="translate(-119.96 -12.18)"/><path class="cls-3" d="M428.51,357.47S415.4,398,356,398.36c-59.39-.32-72.5-40.89-72.5-40.89C149.1,386.69,177.9,489.56,177.9,489.56l177.41,1.16h1.39l177.4-1.16S562.9,386.69,428.51,357.47Z" transform="translate(-119.96 -12.18)"/><path class="cls-10" d="M269.06,354.78,292.64,491.1l-88.51-1.05V390S235.25,365.6,269.06,354.78Z" transform="translate(-119.96 -12.18)"/><path class="cls-10" d="M442.21,354.78,418.71,491.1l88.43-1.05V390S476,365.6,442.21,354.78Z" transform="translate(-119.96 -12.18)"/></g></svg>