<svg id="OBJECTS" xmlns="http://www.w3.org/2000/svg" xmlns:xlink="http://www.w3.org/1999/xlink" viewBox="0 0 467.13 490.59"><defs><style>.cls-1{fill:none;}.cls-2{fill:#fdedee;}.cls-3{clip-path:url(#clip-path);}.cls-4{fill:#f19c7c;}.cls-5{fill:#d67558;}.cls-6{fill:#efa084;}.cls-7{fill:#5d8584;}.cls-8{fill:#76413b;}.cls-9{fill:#d85e41;}.cls-10{fill:#161114;}</style><clipPath id="clip-path" transform="translate(-123.15 -12.18)"><path class="cls-1" d="M352.75,490.05q-98.16-2.19-165.52-69.65-44.94-44.94-58.44-107.83a247.37,247.37,0,0,1,5.26-125.09q18.73-62.14,63.65-107.1,65.91-65.89,155-68.14T515.25,83.38q71.93,71.91,74.91,169.26t-67.4,167.77Q450.87,492.3,352.75,490.05Z"/></clipPath></defs><path class="cls-2" d="M352.75,490.05q-98.16-2.19-165.52-69.65-44.94-44.94-58.44-107.83a247.37,247.37,0,0,1,5.26-125.09q18.73-62.14,63.65-107.1,65.91-65.89,155-68.14T515.25,83.38q71.93,71.91,74.91,169.26t-67.4,167.77Q450.87,492.3,352.75,490.05Z" transform="translate(-123.15 -12.18)"/><g class="cls-3"><path class="cls-4" d="M407.24,356.79c-16.11-13.2-1.15-88.81-1.15-88.81H314.77s15,75.61-1.15,88.81S191.68,368.4,201.4,501.37H511.94C523.94,368.05,423.35,370,407.24,356.79Z" transform="translate(-123.15 -12.18)"/><path class="cls-5" d="M402.59,349.24c-8-23.27,3.5-81.26,3.5-81.26H314.77s6.16,31.18,6.31,57C344.07,342.33,373,349.21,402.59,349.24Z" transform="translate(-123.15 -12.18)"/><path class="cls-6" d="M385,432.86c-58.35,0-117-1.42-175.43-1.13a136.55,136.55,0,0,0-8.34,39.73c47.52,14.8,169.9,43.46,311.6,3-.47-16.21-2.93-29.9-6.78-41.55Z" transform="translate(-123.15 -12.18)"/><path class="cls-7" d="M546.53,448.14C540.92,357.4,437.65,366,437.65,366l0,.12c-.22,0-.42-.09-.64-.12,0,0-14.58,41.66-80.62,42-66-.33-80.62-42-80.62-42s-115.73-11.7-108.88,82.19c0,0,25.7,20.56,71.13,28.6-1.53,8-3.52,16.38-6.1,25.15l123.69.86h1.55l120-.85c-2.51-8.53-4.46-16.68-6-24.47C519.24,470,546.53,448.14,546.53,448.14Z" transform="translate(-123.15 -12.18)"/><path class="cls-5" d="M259,238.11c4.47,16.38,17.08,30.91,27,28.2s13.37-21.63,8.89-38-15.2-24-25.11-21.32S254.54,221.72,259,238.11Z" transform="translate(-123.15 -12.18)"/><path class="cls-5" d="M460.85,238.11c-4.48,16.38-17.09,30.91-27,28.2s-13.37-21.63-8.89-38,15.2-24,25.11-21.32S465.32,221.72,460.85,238.11Z" transform="translate(-123.15 -12.18)"/><path class="cls-4" d="M277.75,212.52c.34,92.36,37.07,126,82.81,126s82.78-35.27,82.8-126c0-62.35-37.07-99.79-82.8-99.79S277.52,150.17,277.75,212.52Z" transform="translate(-123.15 -12.18)"/><path class="cls-8" d="M278.88,239.36l3.93-53.51s15-6.29,15-29.9c0,0,6.29,11.8,19.67,14.16l-3.94-9.44,13.38,12.59s7.87-1.57,12.59-12.59c0,0,0,12.59-3.93,15,0,0,14.95,3.15,21.24-15,0,0-.78,11.8-6.29,18.1,0,0,18.88,1.57,19.67-17.31,0,0,.79,12.59,9.44,14.95l.79-15.74s4.72,11.8,15.74,15.74c0,0,5.51-7.08,2.36-19.67,0,0,6.29,12.59,4.72,22.82,0,0,15.74-9.05,11-22.43,0,0,4.32,21.64,22.42,25.57,0,0,2,37,5.12,55.87,0,0,6.33-15.85,5.9-30.69a8,8,0,0,1,5.51.4s31.87-109-75.94-117.65c-119-9.55-116.46,84.6-110.95,118a5.87,5.87,0,0,1,7.08,3.15S271.4,233.06,278.88,239.36Z" transform="translate(-123.15 -12.18)"/><path class="cls-9" d="M363.87,222.84c1,3.6,2.2,7.1,3.48,10.6s2.59,7,4,10.42,2.78,6.88,4.24,10.29q1.11,2.55,2.31,5a48.87,48.87,0,0,0,2.57,4.81l.51.84-.79.52c-1.47,1-3,1.91-4.51,2.8a46.38,46.38,0,0,1-4.77,2.42,42.88,42.88,0,0,1-5,1.8c-1.7.49-3.41.94-5.15,1.26,1.63-.69,3.26-1.32,4.86-2.05s3.16-1.48,4.68-2.31,3-1.72,4.47-2.65,2.88-1.94,4.35-2.91l-.28,1.36a70,70,0,0,1-5-10.15c-1.47-3.45-2.77-7-4-10.47s-2.38-7.09-3.39-10.68c-.53-1.8-1-3.62-1.4-5.44A46.72,46.72,0,0,1,363.87,222.84Z" transform="translate(-123.15 -12.18)"/><path class="cls-9" d="M336.7,287.75a38.78,38.78,0,0,0,26.62,9.56,48.39,48.39,0,0,0,14.14-2.67,86.17,86.17,0,0,0,13.38-6A52.79,52.79,0,0,1,378,296.13l-1.74.69-1.79.58c-1.18.42-2.41.67-3.63,1a44.74,44.74,0,0,1-7.48.94,39,39,0,0,1-7.54-.6,34.11,34.11,0,0,1-7.21-2.19A31,31,0,0,1,336.7,287.75Z" transform="translate(-123.15 -12.18)"/><path class="cls-8" d="M372.52,216.54a32.88,32.88,0,0,1,11.44-11,31,31,0,0,1,7.57-3.11,28.5,28.5,0,0,1,8.24-.87,31,31,0,0,1,15.45,5,41.41,41.41,0,0,1,11.46,10.91,83.33,83.33,0,0,0-13-8.17,35.09,35.09,0,0,0-14.08-3.79,31.79,31.79,0,0,0-14.22,2.78A52.11,52.11,0,0,0,372.52,216.54Z" transform="translate(-123.15 -12.18)"/><path class="cls-8" d="M291.74,219.35a27.57,27.57,0,0,1,4.32-7.07,29.7,29.7,0,0,1,6.25-5.68,27,27,0,0,1,16.41-4.69A35.32,35.32,0,0,1,334.87,207a50.43,50.43,0,0,1,12.67,10.59,123.27,123.27,0,0,0-14.09-7.81,42.09,42.09,0,0,0-14.89-3.83,28.6,28.6,0,0,0-14.64,3.35,36.57,36.57,0,0,0-6.47,4.4A44.47,44.47,0,0,0,291.74,219.35Z" transform="translate(-123.15 -12.18)"/><path class="cls-10" d="M326.2,239.13c0,6.52-1.8,11.8-4,11.8s-4-5.28-4-11.8,1.8-11.8,4-11.8S326.2,232.61,326.2,239.13Z" transform="translate(-123.15 -12.18)"/><path class="cls-10" d="M401.27,237.53c0,6.52-1.8,11.8-4,11.8s-4-5.28-4-11.8,1.8-11.8,4-11.8S401.27,231,401.27,237.53Z" transform="translate(-123.15 -12.18)"/></g></svg>