<svg id="OBJECTS" xmlns="http://www.w3.org/2000/svg" xmlns:xlink="http://www.w3.org/1999/xlink" viewBox="0 0 467.13 490.59"><defs><style>.cls-1{fill:none;}.cls-2{fill:#e1f0ff;}.cls-3{clip-path:url(#clip-path);}.cls-4{fill:#edbf9a;}.cls-5{fill:#f19c7c;}.cls-6{fill:#d67558;}.cls-7{fill:#efa084;}.cls-8{fill:#fc6a5a;}.cls-9{fill:#fddec0;}.cls-10{fill:#d85e41;}.cls-11{fill:#fff;}.cls-12{fill:#161114;}</style><clipPath id="clip-path" transform="translate(-123.15 -12.18)"><path class="cls-1" d="M352.75,490.05q-98.16-2.19-165.52-69.65-44.94-44.94-58.44-107.83a247.37,247.37,0,0,1,5.26-125.09q18.73-62.14,63.65-107.1,65.91-65.89,155-68.14T515.25,83.38q71.93,71.91,74.91,169.26t-67.4,167.77Q450.87,492.3,352.75,490.05Z"/></clipPath></defs><path class="cls-2" d="M352.75,490.05q-98.16-2.19-165.52-69.65-44.94-44.94-58.44-107.83a247.37,247.37,0,0,1,5.26-125.09q18.73-62.14,63.65-107.1,65.91-65.89,155-68.14T515.25,83.38q71.93,71.91,74.91,169.26t-67.4,167.77Q450.87,492.3,352.75,490.05Z" transform="translate(-123.15 -12.18)"/><g class="cls-3"><path class="cls-4" d="M328.06,115.93s-22.43-33.05-54.3-7.08c-43.35,35.33,4.73,68.46-42.49,129.84-37.66,48.95,41.31,66.1,2.36,113.31-29.9,36.25,18.89,80.27,74.36,79.09S365.83,184.39,328.06,115.93Z" transform="translate(-123.15 -12.18)"/><path class="cls-4" d="M328.22,119.11a45.85,45.85,0,0,0-7.71-8.85,39.11,39.11,0,0,0-9.69-6.53,30.53,30.53,0,0,0-11.23-2.89,31.33,31.33,0,0,0-11.45,1.59,45.67,45.67,0,0,0-10.46,5l-2.41,1.65c-.81.54-1.54,1.19-2.32,1.78s-1.54,1.19-2.29,1.81l-2.16,2-1.09,1-1,1.06-2,2.11a50.27,50.27,0,0,0-3.52,4.62,44.64,44.64,0,0,0-2.95,5l-1.19,2.65c-.39.88-.66,1.81-1,2.71a56,56,0,0,0-2.44,11.34c-.45,3.86-.62,7.77-.73,11.69-.2,7.83-.17,15.74-1.09,23.62a105.73,105.73,0,0,1-2,11.72A92.41,92.41,0,0,1,246,203.55a100.36,100.36,0,0,1-11,21c-1.06,1.68-2.3,3.23-3.46,4.83-.6.79-1.17,1.6-1.79,2.37l-1.89,2.29c-1.26,1.53-2.53,3.06-3.72,4.56l-1.82,2.27c-.59.77-1.09,1.6-1.64,2.39a44,44,0,0,0-5.22,10.25,33.22,33.22,0,0,0-1.72,11.27,36.7,36.7,0,0,0,2.14,11.27,78.07,78.07,0,0,0,4.65,10.68c3.57,6.94,7.76,13.68,10.61,21.13A44,44,0,0,1,234,319.5a32,32,0,0,1-1.32,11.89,40.34,40.34,0,0,1-5.21,10.72l-1.75,2.41-.88,1.2-1,1.13L220,351.31a40.33,40.33,0,0,0-6.37,9.71,32.56,32.56,0,0,0-2.89,11.26c-.56,7.81,1.85,15.64,5.81,22.39A44.72,44.72,0,0,1,211.67,384a35.15,35.15,0,0,1-1.45-11.72A33,33,0,0,1,213,360.72a41.22,41.22,0,0,1,6.32-10.05l3.8-4.49.94-1.12.84-1.19,1.69-2.38A39,39,0,0,0,231.48,331a30.72,30.72,0,0,0,1.13-11.4,41.86,41.86,0,0,0-2.89-11.18,91.73,91.73,0,0,0-5.08-10.53c-1.86-3.44-3.79-6.87-5.63-10.37a79.15,79.15,0,0,1-4.79-10.9,38.36,38.36,0,0,1-2.28-11.79A35.13,35.13,0,0,1,213.71,253a45.89,45.89,0,0,1,5.4-10.72c.57-.82,1.08-1.68,1.69-2.47l1.86-2.34c1.24-1.58,2.47-3.08,3.71-4.59l1.85-2.27c.61-.76,1.17-1.56,1.75-2.34,1.15-1.58,2.36-3.11,3.4-4.76a99.45,99.45,0,0,0,10.89-20.59,89.57,89.57,0,0,0,3.45-11.13,101.76,101.76,0,0,0,2-11.51c.93-7.75.93-15.59,1.17-23.46.13-3.94.29-7.9.79-11.84a58.15,58.15,0,0,1,2.65-11.63c.36-.94.65-1.89,1.07-2.8l1.26-2.72a45,45,0,0,1,3.1-5.12,56.14,56.14,0,0,1,3.68-4.71l2.08-2.14,1-1.07,1.12-1,2.23-2c.76-.63,1.56-1.22,2.34-1.82s1.55-1.24,2.38-1.78l2.47-1.66a46.23,46.23,0,0,1,10.78-5,32,32,0,0,1,11.79-1.4,30.85,30.85,0,0,1,11.41,3.16,39.7,39.7,0,0,1,9.67,6.77A46.3,46.3,0,0,1,328.22,119.11Z" transform="translate(-123.15 -12.18)"/><path class="cls-5" d="M407.24,356.79c-16.11-13.2-1.15-88.81-1.15-88.81H314.77s15,75.61-1.15,88.81S191.68,368.4,201.4,501.37H511.94C523.94,368.05,423.35,370,407.24,356.79Z" transform="translate(-123.15 -12.18)"/><path class="cls-6" d="M402.59,349.24c-8-23.27,3.5-81.26,3.5-81.26H314.77s6.16,31.18,6.31,57C344.07,342.33,373,349.21,402.59,349.24Z" transform="translate(-123.15 -12.18)"/><path class="cls-7" d="M385,432.86c-58.35,0-117-1.42-175.43-1.13a136.55,136.55,0,0,0-8.34,39.73c47.52,14.8,169.9,43.46,311.6,3-.47-16.21-2.93-29.9-6.78-41.55Z" transform="translate(-123.15 -12.18)"/><path class="cls-8" d="M469.54,379.05c-9.81-4.6-21.42-10.95-35.17-13.1,0,0-13.46,41.66-74.44,42-61-.33-74.44-42-74.44-42-15.17,2.11-27.85,8.63-38.43,13.55,5.23,17.59,14.77,60.46-2.05,122.39l114.21.86h1.43l110.81-.85C454.49,439.44,464.34,396.31,469.54,379.05Z" transform="translate(-123.15 -12.18)"/><path class="cls-8" d="M278,429.39,285.49,366S221.77,359.26,185,448.14c0,0,31.24,27.08,85.41,31.25Z" transform="translate(-123.15 -12.18)"/><path class="cls-8" d="M442.43,429.39,434.94,366s63.73-6.69,100.53,82.19c0,0-31.24,27.08-85.41,31.25Z" transform="translate(-123.15 -12.18)"/><path class="cls-6" d="M259,238.11c4.47,16.38,17.08,30.91,27,28.2s13.37-21.63,8.89-38-15.2-24-25.11-21.32S254.54,221.72,259,238.11Z" transform="translate(-123.15 -12.18)"/><path class="cls-6" d="M460.85,238.11c-4.48,16.38-17.09,30.91-27,28.2s-13.37-21.63-8.89-38,15.2-24,25.11-21.32S465.32,221.72,460.85,238.11Z" transform="translate(-123.15 -12.18)"/><path class="cls-5" d="M277.75,208.74c0,60,37.07,121.21,82.81,121.21s82.8-61.23,82.8-121.21-37.07-96-82.8-96S277.75,148.75,277.75,208.74Z" transform="translate(-123.15 -12.18)"/><path class="cls-9" d="M325.7,121.83s44.85-22.42,47.21,24.79,16.53,34.23,31.87,38.95-10.62,46,10.63,60.2,3.44,17.64-16.53,62.56S392.94,387.4,426,396.86s25.17-20.68,59-13c8.65,2,7.08,2.36,14.16,9.44,0,0,26-37.77-7.08-49.57s39-56.66,9.44-86.17,24.79-59-27.14-90.88c-38.71-23.75-4.73-34.23-35.42-70.83C424.29,78.3,343.41,42.75,325.7,121.83Z" transform="translate(-123.15 -12.18)"/><path class="cls-9" d="M339.12,116.45c2.36-.6,4.7-1.24,7.09-1.7a22.09,22.09,0,0,1,7.3-.35,14.83,14.83,0,0,1,6.76,2.81,26.08,26.08,0,0,1,5.37,5,32.15,32.15,0,0,1,6,13.35,96.64,96.64,0,0,1,1.75,14.55c.31,4.85.53,9.71,1.14,14.5a60.53,60.53,0,0,0,1.29,7.09c.14.58.29,1.16.47,1.73a14,14,0,0,0,.55,1.66,11.72,11.72,0,0,0,1.73,2.94,13.35,13.35,0,0,0,5.67,3.81,49.85,49.85,0,0,0,6.91,1.91,69.46,69.46,0,0,1,7.13,1.88,20.24,20.24,0,0,1,6.66,3.59l-.13-.09a6.51,6.51,0,0,1,2.21,2.07,5.9,5.9,0,0,1,.84,2.93,12.75,12.75,0,0,1-.29,2.81,19.25,19.25,0,0,0-.44,2.46v.11l0,.09c-1.29,4.65-2.51,9.31-3.4,14a65.51,65.51,0,0,0-1.31,14.21,29.21,29.21,0,0,0,3.41,13.49,24.13,24.13,0,0,0,10.06,9.39l.16.09.12.13a12.79,12.79,0,0,1,3,6.66,10.36,10.36,0,0,1-.18,3.72,10.11,10.11,0,0,1-.58,1.79c-.14.29-.27.6-.42.86l-.45.73L410.3,276.4c-4.76,7.77-9.46,15.57-13.7,23.61q-1.56,3-3.07,6.08c-.94,2.07-1.95,4.1-2.84,6.19s-1.84,4.15-2.59,6.29l-1.2,3.18c-.41,1.06-.72,2.15-1.08,3.22a100.69,100.69,0,0,0-5.06,26.62v-.06a59.27,59.27,0,0,0,2.8,14.68A54.21,54.21,0,0,0,390,379.7a46.78,46.78,0,0,0,10.13,11,40.8,40.8,0,0,0,13.3,6.92A40.07,40.07,0,0,1,399.91,391a47.21,47.21,0,0,1-10.46-10.93,57.34,57.34,0,0,1-9.85-28.47v-.06a103.08,103.08,0,0,1,4.8-27,152.85,152.85,0,0,1,10.7-25.29c4.24-8.12,8.92-16,13.66-23.77l7.1-11.66.44-.73c.13-.24.21-.46.32-.69a7.23,7.23,0,0,0,.47-1.45,8.79,8.79,0,0,0,.14-3.07,11,11,0,0,0-2.56-5.64l.28.22a28.84,28.84,0,0,1-6.17-4.25,24.26,24.26,0,0,1-4.68-5.89,31.2,31.2,0,0,1-3.6-14.38,67.28,67.28,0,0,1,1.4-14.61c.93-4.79,2.18-9.5,3.49-14.16l0,.2a20.75,20.75,0,0,1,.48-2.73,10.88,10.88,0,0,0,.27-2.42,4,4,0,0,0-.58-2.08,4.72,4.72,0,0,0-1.6-1.5l-.07-.05-.05,0a18.77,18.77,0,0,0-6.1-3.3,67.69,67.69,0,0,0-7-1.86,50.28,50.28,0,0,1-7.11-2.06A14.8,14.8,0,0,1,377.4,179a13.24,13.24,0,0,1-1.92-3.34,16.32,16.32,0,0,1-.58-1.8c-.17-.59-.32-1.19-.46-1.79a62.7,62.7,0,0,1-1.23-7.27c-.56-4.87-.72-9.74-1-14.59a98.9,98.9,0,0,0-1.54-14.41,31.42,31.42,0,0,0-5.57-13.15,25,25,0,0,0-5.16-5,14.42,14.42,0,0,0-6.51-2.86,22.39,22.39,0,0,0-7.21.18C343.85,115.33,341.49,115.91,339.12,116.45Z" transform="translate(-123.15 -12.18)"/><path class="cls-9" d="M506.3,394.1c2.17-6.13,5.19-11.94,7.42-18a43,43,0,0,0,2.43-9.38,18.42,18.42,0,0,0-1.11-9.43,16.45,16.45,0,0,0-2.5-4.06,20.82,20.82,0,0,0-3.49-3.27c-.62-.51-1.32-.91-2-1.36a15.79,15.79,0,0,0-2.08-1.17,35.84,35.84,0,0,0-4.53-1.64,46.67,46.67,0,0,1-4.66-1.6,10.76,10.76,0,0,1-4.14-2.93,8.86,8.86,0,0,1-1.87-4.76,18.24,18.24,0,0,1,.2-5v-.05a52.89,52.89,0,0,1,5.72-13.6c2.44-4.26,5.22-8.3,7.93-12.34a122.85,122.85,0,0,0,7.59-12.4,40.74,40.74,0,0,0,4.45-13.56v.11a26.78,26.78,0,0,0-2-9.85,60,60,0,0,0-4.72-9.1c-1.79-3-3.68-5.88-5.41-8.93a55.81,55.81,0,0,1-4.42-9.61l0-.05V242a35.48,35.48,0,0,1-.62-8.6,50.23,50.23,0,0,1,1.24-8.49c1.25-5.54,3-10.87,4-16.32v.08a36,36,0,0,0-2.95-18.34,41.38,41.38,0,0,0-2.19-4.17c-.42-.66-.8-1.35-1.24-2L496,182.25c-.24-.32-.46-.65-.7-1l-.76-.91L493,178.56l-1.63-1.71c-.55-.57-1.09-1.16-1.68-1.68A76.25,76.25,0,0,0,474.31,164c-1.43-.76-2.77-1.44-4.28-2.28a24.18,24.18,0,0,1-4-3,18,18,0,0,1-3.2-3.95,10.27,10.27,0,0,1-1.49-5v.1c-1.27-11.38-1.78-22.85-4.84-33.76a47.61,47.61,0,0,0-7.11-15.17,53.67,53.67,0,0,0-12.12-11.65,76.11,76.11,0,0,0-30.86-13.54A77.06,77.06,0,0,0,372.64,77h-.06a41.81,41.81,0,0,0-13.17,3.78,41.11,41.11,0,0,0-11.2,7.94,45,45,0,0,0-8.12,11.12,51.78,51.78,0,0,0-4.64,13,51.76,51.76,0,0,1,4.44-13.13,45.2,45.2,0,0,1,8-11.34,41.77,41.77,0,0,1,11.23-8.23,42.37,42.37,0,0,1,13.34-4.06h-.06A76.45,76.45,0,0,1,438.17,88l1.75,1.27c.59.42,1.13.9,1.69,1.35,1.11.92,2.26,1.78,3.3,2.81l1.6,1.49c.54.48,1,1.07,1.48,1.6l1.45,1.64,1.29,1.77a49,49,0,0,1,7.42,15.68c3.17,11.18,3.7,22.73,5,34v.11c0,2.84,1.91,5.54,4.12,7.61a21.11,21.11,0,0,0,3.71,2.73c1.3.73,2.82,1.5,4.24,2.26a77.35,77.35,0,0,1,15.84,11.37,50.06,50.06,0,0,1,11.55,15.8,38,38,0,0,1,3.05,19.35V209c-1.12,5.58-2.88,10.95-4.12,16.36a48.56,48.56,0,0,0-1.22,8.17,33.32,33.32,0,0,0,.57,8.16l0-.11a53.7,53.7,0,0,0,4.25,9.3c1.68,3,3.56,5.92,5.36,8.91a61.89,61.89,0,0,1,4.82,9.38,28.11,28.11,0,0,1,2.07,10.47v.1a42.23,42.23,0,0,1-4.75,14.06,123.64,123.64,0,0,1-7.79,12.48c-2.76,4-5.55,8-8,12.19a52.41,52.41,0,0,0-5.71,13.24v0a17.31,17.31,0,0,0-.24,4.7,7.77,7.77,0,0,0,1.6,4.21,9.71,9.71,0,0,0,3.73,2.67,46.88,46.88,0,0,0,4.54,1.63,36.38,36.38,0,0,1,4.61,1.76,15.37,15.37,0,0,1,2.16,1.25c.67.48,1.38.9,2,1.44a21.46,21.46,0,0,1,3.56,3.44,16.83,16.83,0,0,1,2.53,4.26,19,19,0,0,1,1,9.74,43.09,43.09,0,0,1-2.61,9.43C511.68,382.26,508.57,388,506.3,394.1Z" transform="translate(-123.15 -12.18)"/><path class="cls-4" d="M328.06,115.93s24.79,45.64-40.52,84.2c0,0-9.45,30.69-4.73,45.64,0,0-10.3-8.33-13-38.79S289.9,96.65,328.06,115.93Z" transform="translate(-123.15 -12.18)"/><path class="cls-10" d="M365.38,232.89A72,72,0,0,0,369.94,245a39.15,39.15,0,0,0,7.27,10.37l.86.87-1,.66c-1.32.87-2.67,1.7-4,2.54s-2.7,1.65-4.05,2.47c-2.73,1.6-5.47,3.19-8.31,4.63,2.44-2,5-3.95,7.52-5.83,1.28-.92,2.55-1.87,3.85-2.76s2.59-1.82,3.91-2.7l-.15,1.53a30.82,30.82,0,0,1-4.31-5.16,34.85,34.85,0,0,1-3.15-5.9A40.24,40.24,0,0,1,365.38,232.89Z" transform="translate(-123.15 -12.18)"/><path class="cls-11" d="M336.7,280.66s28.14,28.95,54.14.92" transform="translate(-123.15 -12.18)"/><path class="cls-12" d="M368.51,209.91a27.8,27.8,0,0,1,4.4-7,30,30,0,0,1,6.27-5.61,27.44,27.44,0,0,1,7.75-3.61,29,29,0,0,1,8.55-1,33,33,0,0,1,8.4,1.55l2,.7,1.94.83a39.77,39.77,0,0,1,3.74,1.9,52.14,52.14,0,0,1,12.75,10.43,112.78,112.78,0,0,0-14-8l-1.82-.76-.91-.39-.92-.34L404.8,198l-1.87-.53a31.88,31.88,0,0,0-7.6-1.22,28.05,28.05,0,0,0-14.73,3.43,36.16,36.16,0,0,0-6.46,4.47A42.79,42.79,0,0,0,368.51,209.91Z" transform="translate(-123.15 -12.18)"/><path class="cls-12" d="M294.1,209.91a28.09,28.09,0,0,1,4.4-7,30.27,30.27,0,0,1,6.27-5.61,27.44,27.44,0,0,1,7.75-3.61,29,29,0,0,1,8.55-1,33,33,0,0,1,8.4,1.55l2,.7,1.94.83a37.47,37.47,0,0,1,3.74,1.9,52.38,52.38,0,0,1,12.76,10.43,113.62,113.62,0,0,0-14-8l-1.82-.76-.91-.39-.92-.34L330.4,198l-1.88-.53a31.88,31.88,0,0,0-7.59-1.22,28.06,28.06,0,0,0-14.74,3.43,36.16,36.16,0,0,0-6.46,4.47A42.79,42.79,0,0,0,294.1,209.91Z" transform="translate(-123.15 -12.18)"/><path class="cls-12" d="M328.56,232.05c0,6.52-1.8,11.8-4,11.8s-4-5.28-4-11.8,1.81-11.8,4-11.8S328.56,225.53,328.56,232.05Z" transform="translate(-123.15 -12.18)"/><path class="cls-12" d="M398.91,230.45c0,6.52-1.81,11.8-4,11.8s-4-5.28-4-11.8,1.8-11.8,4-11.8S398.91,223.93,398.91,230.45Z" transform="translate(-123.15 -12.18)"/></g></svg>