<svg id="OBJECTS" xmlns="http://www.w3.org/2000/svg" xmlns:xlink="http://www.w3.org/1999/xlink" viewBox="0 0 467.13 490.59"><defs><style>.cls-1{fill:none;}.cls-2{fill:#fdedee;}.cls-3{clip-path:url(#clip-path);}.cls-4{fill:#ffb899;}.cls-5{fill:#efa084;}.cls-6{fill:#352c38;}.cls-7{fill:#6f96bd;}.cls-8{fill:#f77b59;}.cls-9{fill:#161114;}</style><clipPath id="clip-path" transform="translate(-123.15 -12.18)"><path class="cls-1" d="M352.75,490.05q-98.16-2.19-165.52-69.65-44.94-44.94-58.44-107.83a247.37,247.37,0,0,1,5.26-125.09q18.73-62.14,63.65-107.1,65.91-65.89,155-68.14T515.25,83.38q71.93,71.91,74.91,169.26t-67.4,167.77Q450.87,492.3,352.75,490.05Z"/></clipPath></defs><path class="cls-2" d="M352.75,490.05q-98.16-2.19-165.52-69.65-44.94-44.94-58.44-107.83a247.37,247.37,0,0,1,5.26-125.09q18.73-62.14,63.65-107.1,65.91-65.89,155-68.14T515.25,83.38q71.93,71.91,74.91,169.26t-67.4,167.77Q450.87,492.3,352.75,490.05Z" transform="translate(-123.15 -12.18)"/><g class="cls-3"><path class="cls-4" d="M407.24,356.79c-16.11-13.2-1.15-88.81-1.15-88.81H314.77s15,75.61-1.15,88.81S191.68,368.4,201.4,501.37H511.94C523.94,368.05,423.35,370,407.24,356.79Z" transform="translate(-123.15 -12.18)"/><path class="cls-5" d="M402.59,349.24c-8-23.27,3.5-81.26,3.5-81.26H314.77s6.16,31.18,6.31,57C344.07,342.33,373,349.21,402.59,349.24Z" transform="translate(-123.15 -12.18)"/><path class="cls-5" d="M385,432.86c-58.35,0-117-1.42-175.43-1.13a136.55,136.55,0,0,0-8.34,39.73c47.52,14.8,169.9,43.46,311.6,3-.47-16.21-2.93-29.9-6.78-41.55Z" transform="translate(-123.15 -12.18)"/><path class="cls-6" d="M469.54,379.05c-9.81-4.6-21.42-10.95-35.17-13.1,0,0-13.46,41.66-74.44,42-61-.33-74.44-42-74.44-42-15.17,2.11-27.85,8.63-38.43,13.55,5.23,17.59,14.77,60.46-2.05,122.39l114.21.86h1.43l110.81-.85C454.49,439.44,464.34,396.31,469.54,379.05Z" transform="translate(-123.15 -12.18)"/><path class="cls-6" d="M278,429.39,285.49,366S221.77,359.26,185,448.14c0,0,31.24,27.08,85.41,31.25Z" transform="translate(-123.15 -12.18)"/><path class="cls-6" d="M442.43,429.39,434.94,366s63.73-6.69,100.53,82.19c0,0-31.24,27.08-85.41,31.25Z" transform="translate(-123.15 -12.18)"/><path class="cls-7" d="M285.26,272.52s-64.53-9.44-48,62.17l23.61-31.48s-22,27.55-18.1,53.51c0,0,37-3.93,50.36-44.85,0,0-7.87,33.05-30.69,42.49,0,0,51.94.79,40.92-54.29S285.26,272.52,285.26,272.52Z" transform="translate(-123.15 -12.18)"/><path class="cls-6" d="M280.15,274.49a16.92,16.92,0,1,0,16.91-16.92A16.91,16.91,0,0,0,280.15,274.49Z" transform="translate(-123.15 -12.18)"/><path class="cls-7" d="M438.75,272.52s64.53-9.44,48,62.17l-23.61-31.48s22,27.55,18.1,53.51c0,0-37-3.93-50.36-44.85,0,0,7.86,33.05,30.68,42.49,0,0-51.93.79-40.91-54.29S438.75,272.52,438.75,272.52Z" transform="translate(-123.15 -12.18)"/><path class="cls-6" d="M443.87,274.49A16.92,16.92,0,1,1,427,257.57,16.92,16.92,0,0,1,443.87,274.49Z" transform="translate(-123.15 -12.18)"/><path class="cls-5" d="M259,238.11c4.47,16.38,17.08,30.91,27,28.2s13.37-21.63,8.89-38-15.2-24-25.11-21.32S254.54,221.72,259,238.11Z" transform="translate(-123.15 -12.18)"/><path class="cls-5" d="M460.85,238.11c-4.48,16.38-17.09,30.91-27,28.2s-13.37-21.63-8.89-38,15.2-24,25.11-21.32S465.32,221.72,460.85,238.11Z" transform="translate(-123.15 -12.18)"/><path class="cls-4" d="M277.75,208.74c0,60,37.07,121.21,82.81,121.21s82.8-61.23,82.8-121.21-37.07-96-82.8-96S277.75,148.75,277.75,208.74Z" transform="translate(-123.15 -12.18)"/><path class="cls-7" d="M312,125.37S357.66,204.06,422.18,223C406.44,180.46,364,155.28,364,155.28s78.69,28.32,59.81,108.59c0,0,23.6-17.31,31.47-55.08l4.72,5.5S493,123.8,415.1,90.75C333.53,56.14,312,125.37,312,125.37Z" transform="translate(-123.15 -12.18)"/><path class="cls-7" d="M315.16,125.37c10.23,63.74,88.92,98.37,88.92,98.37" transform="translate(-123.15 -12.18)"/><path class="cls-7" d="M322.58,118.25a59.9,59.9,0,0,0-2.5,7.72,52.72,52.72,0,0,0-1.23,8,50.19,50.19,0,0,0,1.57,16.16c2.76,10.61,8.62,20.32,15.62,28.93a152.58,152.58,0,0,0,24.19,23.11,204.84,204.84,0,0,0,28.12,18.41A204.72,204.72,0,0,1,359.62,203a153.46,153.46,0,0,1-25.11-22.62,95.93,95.93,0,0,1-10.06-13.74,67.22,67.22,0,0,1-7-15.67,53.65,53.65,0,0,1-2.2-17.16,56.11,56.11,0,0,1,1.05-8.66,64.26,64.26,0,0,1,2.44-8.38Z" transform="translate(-123.15 -12.18)"/><path class="cls-7" d="M315.16,128.52s-52.72,81-12.59,122.76c0,0-27,1.89-32.78-44.3,0,0-16.79,8.89-12.07,27.77,0,0-22.07-36-13.38-79.47,7.08-35.41,52.72-67.68,85-40.14C373,152.4,315.16,128.52,315.16,128.52Z" transform="translate(-123.15 -12.18)"/><path class="cls-8" d="M365.38,232.89A72,72,0,0,0,369.94,245a39.15,39.15,0,0,0,7.27,10.37l.86.87-1,.66c-1.32.87-2.67,1.7-4,2.54s-2.7,1.65-4.05,2.47c-2.73,1.6-5.47,3.19-8.31,4.63,2.44-2,5-3.95,7.52-5.83,1.28-.92,2.55-1.87,3.85-2.76s2.59-1.82,3.91-2.7l-.15,1.53a30.82,30.82,0,0,1-4.31-5.16,34.85,34.85,0,0,1-3.15-5.9A40.24,40.24,0,0,1,365.38,232.89Z" transform="translate(-123.15 -12.18)"/><path class="cls-8" d="M336.7,280.66a62.45,62.45,0,0,0,12.82,8.15,39.35,39.35,0,0,0,14.35,3.9,31,31,0,0,0,7.39-.4,35.14,35.14,0,0,0,7.1-2.2,49.12,49.12,0,0,0,12.48-8.53,37.17,37.17,0,0,1-11.8,10,32.59,32.59,0,0,1-7.41,2.66,32.1,32.1,0,0,1-7.89.54,36.21,36.21,0,0,1-14.93-4.52A44.22,44.22,0,0,1,336.7,280.66Z" transform="translate(-123.15 -12.18)"/><path class="cls-9" d="M368.51,212.27a28,28,0,0,1,4.4-7,30,30,0,0,1,6.27-5.61,27.41,27.41,0,0,1,7.75-3.6,28.37,28.37,0,0,1,8.55-1,32.53,32.53,0,0,1,8.4,1.54l2,.7,1.94.84a35.49,35.49,0,0,1,3.74,1.9,52.1,52.1,0,0,1,12.75,10.42,112.7,112.7,0,0,0-14-8l-1.82-.77-.91-.39-.92-.33-1.85-.67-1.87-.52a31.41,31.41,0,0,0-7.6-1.23A28.15,28.15,0,0,0,380.6,202a36.16,36.16,0,0,0-6.46,4.47A42.79,42.79,0,0,0,368.51,212.27Z" transform="translate(-123.15 -12.18)"/><path class="cls-9" d="M294.1,212.27a28.27,28.27,0,0,1,4.4-7,30.27,30.27,0,0,1,6.27-5.61,27.41,27.41,0,0,1,7.75-3.6,28.37,28.37,0,0,1,8.55-1,32.53,32.53,0,0,1,8.4,1.54l2,.7,1.94.84a33.65,33.65,0,0,1,3.74,1.9,52.34,52.34,0,0,1,12.76,10.42,113.54,113.54,0,0,0-14-8l-1.82-.77-.91-.39-.92-.33-1.84-.67-1.88-.52a31.4,31.4,0,0,0-7.59-1.23A28.16,28.16,0,0,0,306.19,202a36.16,36.16,0,0,0-6.46,4.47A42.79,42.79,0,0,0,294.1,212.27Z" transform="translate(-123.15 -12.18)"/><path class="cls-9" d="M328.56,232.05c0,6.52-1.8,11.8-4,11.8s-4-5.28-4-11.8,1.81-11.8,4-11.8S328.56,225.53,328.56,232.05Z" transform="translate(-123.15 -12.18)"/><path class="cls-9" d="M398.91,230.45c0,6.52-1.81,11.8-4,11.8s-4-5.28-4-11.8,1.8-11.8,4-11.8S398.91,223.93,398.91,230.45Z" transform="translate(-123.15 -12.18)"/></g></svg>