<?xml version="1.0" standalone="no"?>
<!DOCTYPE svg PUBLIC "-//W3C//DTD SVG 20010904//EN"
 "http://www.w3.org/TR/2001/REC-SVG-20010904/DTD/svg10.dtd">
<svg version="1.0" xmlns="http://www.w3.org/2000/svg"
 width="500.000000pt" height="500.000000pt" viewBox="0 0 500.000000 500.000000"
 preserveAspectRatio="xMidYMid meet">

<g transform="translate(0.000000,500.000000) scale(0.100000,-0.100000)"
fill="#000000" stroke="none">
<path d="M3890 4117 c-52 -51 -110 -105 -129 -119 -31 -24 -36 -35 -57 -134
-13 -60 -35 -172 -48 -249 -114 -640 -95 -1441 50 -2087 l15 -67 106 -92 c58
-50 113 -105 122 -120 22 -40 39 -36 61 14 47 106 88 431 106 830 l7 157 -75
-35 c-41 -20 -97 -38 -125 -41 l-50 -6 -6 68 c-4 38 -7 248 -7 467 0 375 1
397 18 397 35 0 133 -30 185 -57 28 -15 55 -29 59 -31 8 -4 5 91 -13 423 -19
356 -56 634 -99 733 -11 23 -20 42 -22 42 -2 0 -46 -42 -98 -93z"/>
<path d="M1415 3260 c-329 -6 -328 -6 -451 -75 -34 -19 -87 -60 -117 -91 -258
-257 -199 -673 120 -855 31 -18 81 -40 112 -49 l56 -18 7 -48 c11 -79 17 -93
54 -134 65 -72 106 -80 392 -80 239 0 249 1 298 24 78 36 134 116 134 194 0
20 -5 22 -47 22 -27 0 -92 3 -145 7 l-98 6 -1 381 c-1 210 -4 458 -8 551 l-6
170 -300 -5z"/>
<path d="M1914 1812 c-20 -7 -20 -9 21 -187 26 -113 46 -180 53 -179 7 1 19 2
27 3 34 3 34 35 0 191 -23 108 -39 158 -51 167 -19 14 -19 14 -50 5z"/>
</g>
</svg>
