<svg id="Layer_1" data-name="Layer 1" xmlns="http://www.w3.org/2000/svg" viewBox="0 0 599.22 198.47"><defs><style>.cls-1{fill:#292839;}.cls-2{fill:#ff8f9c;}</style></defs><path class="cls-1" d="M458.7,488.59l1.59.65a20.5,20.5,0,0,1,8.56,6A19.45,19.45,0,0,1,473.26,506a22.64,22.64,0,0,1-.56,7.61,20.65,20.65,0,0,1-5.6,9.72,30.57,30.57,0,0,1-16,8.58,40.45,40.45,0,0,1-17.21-.42l-2.88-.67c-.59.31-.56.84-.75,1.24a4.35,4.35,0,0,1-5.45,2.47,3.79,3.79,0,0,1-2.52-2.3,10.2,10.2,0,0,1-.8-3.88c0-3.48,0-7,.12-10.44.07-2.5.28-5,.44-7.5q.44-6.43.88-12.86.35-5,.72-9.95t.81-9.94c.2-2.29.43-4.59.7-6.87a30.83,30.83,0,0,1,.59-3.16,6.79,6.79,0,0,1,.6-1.57,4.42,4.42,0,0,1,5.2-2.24A3.4,3.4,0,0,1,434,466a6.9,6.9,0,0,1,.44,3.31c-.32,2.9-.59,5.8-.88,8.7-.27,2.69-.56,5.39-.79,8.09-.27,3.16-.5,6.32-.72,9.49q-.27,3.75-.5,7.5c-.12,2-.23,4.09-.31,6.13q-.21,5.84-.39,11.66a8,8,0,0,0,.07.94,6.89,6.89,0,0,0,.86.38,45.17,45.17,0,0,0,13.16,1.92,23.93,23.93,0,0,0,8.11-1.51,17.66,17.66,0,0,0,7.66-5.45,13.8,13.8,0,0,0,3-10.49c-.07-.61-.15-1.22-.28-1.82a10.45,10.45,0,0,0-5.18-6.92,18.17,18.17,0,0,0-6.36-2.16,40.92,40.92,0,0,0-8.71-.51,17.12,17.12,0,0,1-3.36-.1,3.06,3.06,0,0,1-2.93-2.86,3.63,3.63,0,0,1,2-4.09,7.06,7.06,0,0,1,1.89-.6c1.52-.24,3-.43,4.56-.59a10.79,10.79,0,0,0,10-9.93,15.74,15.74,0,0,0,0-3.82,10.31,10.31,0,0,0-3.53-6.61,15.75,15.75,0,0,0-5.61-3.09,27.38,27.38,0,0,0-7.06-1.34,44.8,44.8,0,0,0-6.13-.09,38.55,38.55,0,0,0-9.87,2.12c-1.83.66-3.61,1.45-5.4,2.21a16.85,16.85,0,0,1-3.79,1.19,5.13,5.13,0,0,1-2.58-.19,3.88,3.88,0,0,1-1.72-1.24,3.19,3.19,0,0,1-.24-3.85,7.38,7.38,0,0,1,2.19-2.12,30.29,30.29,0,0,1,5.27-2.81,45.53,45.53,0,0,1,12.72-3.35,58,58,0,0,1,8.11-.47,41.43,41.43,0,0,1,13,2,23.69,23.69,0,0,1,9.23,5.62A17.08,17.08,0,0,1,465,472.5a19.22,19.22,0,0,1-1.88,10.28,19.88,19.88,0,0,1-3.17,4.5Z" transform="translate(-4.17 -337.6)"/><path class="cls-1" d="M484.54,493.69A41.61,41.61,0,0,1,486,482c2.88-9.22,9.07-15,18.41-17.31a34.06,34.06,0,0,1,11.72-.89c10.29,1,17.18,6.57,20.82,16.13a33.36,33.36,0,0,1,1.76,14.81,31.05,31.05,0,0,1-1.5,7.65c-3.06,8.87-9.2,14.58-18.13,17.24a33.94,33.94,0,0,1-15.19,1,21,21,0,0,1-15.54-10.84,27.83,27.83,0,0,1-3.31-10.14C484.78,497.35,484.67,495.1,484.54,493.69Zm44.67-2.24c-.07-1.05-.13-2.33-.27-3.6a19.74,19.74,0,0,0-2.16-7.31,14.73,14.73,0,0,0-10.25-7.85,22.23,22.23,0,0,0-10.93.36,13.81,13.81,0,0,0-9.26,8.1,22.24,22.24,0,0,0-1.34,4.24,37.64,37.64,0,0,0-.66,8.54,30.54,30.54,0,0,0,.7,6.25,17.79,17.79,0,0,0,3.11,7.11,12.41,12.41,0,0,0,8.69,4.93,22.6,22.6,0,0,0,7.78-.39,17.06,17.06,0,0,0,13.37-12A30.49,30.49,0,0,0,529.21,491.45Z" transform="translate(-4.17 -337.6)"/><path class="cls-1" d="M549,493.62a44.74,44.74,0,0,1,1.33-11c2.74-9.54,9-15.49,18.54-17.94a33.8,33.8,0,0,1,11.72-.9c10.42,1,17.35,6.65,20.95,16.38a33.26,33.26,0,0,1,1.66,14.66,31.06,31.06,0,0,1-1.19,6.63c-2.9,9.38-9.16,15.42-18.53,18.19a33.79,33.79,0,0,1-15,.95,21,21,0,0,1-15.64-10.93,27.88,27.88,0,0,1-3.26-10C549.27,497.4,549.16,495.15,549,493.62Zm9.81-1a31.63,31.63,0,0,0,.67,7.43,18.44,18.44,0,0,0,3.07,7.13,12.47,12.47,0,0,0,8.8,5,23.35,23.35,0,0,0,7.78-.4A17.08,17.08,0,0,0,589.91,505a18.23,18.23,0,0,0,2.92-6.38,30.14,30.14,0,0,0,.52-11.43,19.1,19.1,0,0,0-2-6.57A14.76,14.76,0,0,0,581,472.68a22.35,22.35,0,0,0-10.93.38,13.68,13.68,0,0,0-8.63,6.89,19.14,19.14,0,0,0-1.62,4.14A31,31,0,0,0,558.83,492.64Z" transform="translate(-4.17 -337.6)"/><path class="cls-1" d="M72.52,418.55a2.32,2.32,0,0,0-.45.13,12.3,12.3,0,0,0-4.49,3.61c-.7.89-1.43,1.76-2.21,2.59q-2.69,2.85-5.43,5.64c-1.1,1.1-2.27,2.14-3.41,3.2a3.9,3.9,0,0,1-.38.33,3.37,3.37,0,0,1-4.58-.16,5.62,5.62,0,0,1-1.63-2.8c-.32-1.26-.57-2.54-.81-3.82-.16-.83-.25-1.67-.37-2.5a6.93,6.93,0,0,1,.07-2.76,29.84,29.84,0,0,1,.92-3.67,18.15,18.15,0,0,1,10.92-10.88,18.43,18.43,0,0,1,7.58-1,40.29,40.29,0,0,1,7.5,1,19.28,19.28,0,0,1,7.48,3.23,1.57,1.57,0,0,0,1.3.26,34.89,34.89,0,0,1,9.3-.39,34.09,34.09,0,0,1,5.7,1.06,21.39,21.39,0,0,1,7.08,3.53l.2.16c1.21.94,1.1.91,2.62.72a47.08,47.08,0,0,1,7.68-.54,48.28,48.28,0,0,1,6.78.72,5.92,5.92,0,0,1,2,.76,21.47,21.47,0,0,1,8.91,9.7,13.78,13.78,0,0,1,1.28,5.74,18.67,18.67,0,0,1-1,6.21,13.1,13.1,0,0,1-2.42,4.25c-1.62,1.91-3.55,2-5.36.32a10.62,10.62,0,0,1-1.67-2.05c-1.55-2.4-3-4.85-4.56-7.28a16.56,16.56,0,0,1-1.72-3.78,5.26,5.26,0,0,0-.58-1.25,9.58,9.58,0,0,0-3.55-3.12c-.33.18-.15.44-.09.65.44,1.45.89,2.9,1.33,4.35a53.28,53.28,0,0,1,1.46,6.39,32.56,32.56,0,0,1,.44,7,12.62,12.62,0,0,1-.43,3,15.31,15.31,0,0,1-6.76,8.83,13.85,13.85,0,0,1-3.19,1.49c-.36.12-.7.27-1.06.4a3,3,0,0,0,.24,1.63q1.35,4.86,2.76,9.71c1.24,4.24,2.47,8.48,3.78,12.69,1,3.22,2.09,6.4,3.17,9.59a26.23,26.23,0,0,0,1.16,2.93,21.89,21.89,0,0,1,2,6.24,35,35,0,0,1,.51,8.05,62.84,62.84,0,0,1-.74,6.26,17,17,0,0,1-3.21,7.33,34.24,34.24,0,0,1-15.4,11.45,35,35,0,0,1-5.81,1.68,38.93,38.93,0,0,1-7.92.67,47.22,47.22,0,0,1-8.64-1,66.59,66.59,0,0,1-14.14-4.59,108.22,108.22,0,0,1-19.6-11.45,130.54,130.54,0,0,1-19.86-17.72A83.29,83.29,0,0,1,10.55,479a68,68,0,0,1-4-11.54c-.56-2.25-1-4.51-1.4-6.79a91.77,91.77,0,0,1-.91-17.13c0-1.64,0-3.29.2-4.92.23-2.18.32-4.36.65-6.53a59.41,59.41,0,0,1,7.28-20.33A70.3,70.3,0,0,1,23.68,396.6a39.67,39.67,0,0,1,7.4-6.09,68.26,68.26,0,0,1,7.06-3.65,48.21,48.21,0,0,1,7.36-2.65c2-.52,3.93-.9,5.93-1.23a57.21,57.21,0,0,1,9.7-.36,15,15,0,0,1,2,.18c1.75.25,3.51.44,5.24.8,2,.41,4,.89,6,1.48a74.16,74.16,0,0,1,12.67,5,25.06,25.06,0,0,1,7.1,5,9.79,9.79,0,0,1,2,2.92,4.53,4.53,0,0,1-2.63,5.89c-.28.09-.57.17-.84.28a2.77,2.77,0,0,1-2.63-.32,58.57,58.57,0,0,0-17.1-7c-1.88-.46-3.78-.89-5.68-1.2a43.93,43.93,0,0,0-11.33-.53,36.38,36.38,0,0,0-8.72,2,46.75,46.75,0,0,0-17,10.63,45.9,45.9,0,0,0-11.26,17.61,59.1,59.1,0,0,0-2.18,7.24c-.45,1.93-.71,3.89-1.08,5.83a59.43,59.43,0,0,0-.75,7.29A37.39,37.39,0,0,0,15,451c.17,2.27.3,4.54.68,6.79s.77,4.22,1.3,6.3a74.9,74.9,0,0,0,2.33,7.46,83.64,83.64,0,0,0,6.28,13.21A88.12,88.12,0,0,0,35,497.84a80.54,80.54,0,0,0,11.79,11,83.3,83.3,0,0,0,10.35,6.77A8.86,8.86,0,0,0,58,516a9.11,9.11,0,0,0-.21-2.1c-.13-.79-.24-1.58-.35-2.37,0-.25,0-.51-.08-.76a32.47,32.47,0,0,1-.29-8.06,35.17,35.17,0,0,1,1.5-7.92,170.06,170.06,0,0,1,6.81-18.59,160.79,160.79,0,0,1,11-21.15c.22-.36.42-.73.62-1.1,0-.06,0-.16,0-.27-.17-.36-.56-.44-.91-.57a29.43,29.43,0,0,1-6.87-3.71,20.11,20.11,0,0,1-5.44-5.74,11.84,11.84,0,0,1-1.58-4,10,10,0,0,1,.1-4.26,27.94,27.94,0,0,1,3.79-8.22,54.54,54.54,0,0,1,6.07-7.9c.17-.18.32-.37.47-.56Z" transform="translate(-4.17 -337.6)"/><path class="cls-2" d="M256.25,458.32a10.51,10.51,0,0,0-.08,1.23c.14,2.3.32,4.59.44,6.89.43,7.87.45,15.75.27,23.63-.05,2.2-.09,4.4-.19,6.6-.2,4.4-.34,8.8-.67,13.18a120.13,120.13,0,0,1-3,19.69,18.71,18.71,0,0,1-.7,2.35,4.09,4.09,0,0,1-4,2.81,4.38,4.38,0,0,1-4.5-2.82,8.31,8.31,0,0,1-.58-4.36c.49-3.49,1-7,1.41-10.49s.94-7,1.38-10.49c.16-1.27.31-2.54.39-3.82.15-2.6.35-5.21.36-7.82,0-7.31,0-14.63-.07-21.95,0-3.53-.33-7.05-.51-10.58a7.44,7.44,0,0,0-.14-.89,2.07,2.07,0,0,0-1.33.48,35.55,35.55,0,0,0-5.22,4c-.73.64-1.46,1.29-2.23,1.88a10.09,10.09,0,0,1-1.69,1c-2.71,1.33-6.11-1.15-6.35-3.7a3.56,3.56,0,0,1,.57-2.49A25.4,25.4,0,0,1,232,460a36.56,36.56,0,0,1,14.72-9.16,49.54,49.54,0,0,1,10.79-2.25,61.46,61.46,0,0,1,9.2-.19A43,43,0,0,1,282.88,452a28.47,28.47,0,0,1,8.29,5.73,22,22,0,0,1,6.42,13.92A33.16,33.16,0,0,1,296,485.58,24.07,24.07,0,0,1,286.66,498a22.41,22.41,0,0,1-11.79,3.9,30.6,30.6,0,0,1-8.85-.63,18.82,18.82,0,0,1-5.41-2.12,9.7,9.7,0,0,1-2.25-1.84,4.86,4.86,0,0,1,.93-6.93,3.55,3.55,0,0,1,3.21-.51c1,.3,1.93.69,2.89,1s2.11.8,3.18,1.13a14.87,14.87,0,0,0,7,.46,12.87,12.87,0,0,0,6.63-3.31,16.68,16.68,0,0,0,4.39-6.76,21.31,21.31,0,0,0,.94-9.7,14.57,14.57,0,0,0-5.24-9.44,21.22,21.22,0,0,0-8.21-4.35,33.81,33.81,0,0,0-12.46-1.11C259.87,458,258.14,458.15,256.25,458.32Z" transform="translate(-4.17 -337.6)"/><path class="cls-2" d="M317.59,497.37a5.83,5.83,0,0,0-.14.84,23,23,0,0,0,1.26,7.84c1.75,4.91,5.3,7.5,10.43,7.93a16.77,16.77,0,0,0,3.68-.08,10.87,10.87,0,0,0,5.77-2.67c1.34-1.18,2.63-2.42,4-3.63a12.16,12.16,0,0,1,1.27-1.11,4,4,0,0,1,3.79-.53,4.93,4.93,0,0,1,2.21,8,25.87,25.87,0,0,1-16,8.57,29.25,29.25,0,0,1-12-1A17.68,17.68,0,0,1,310,511a30.57,30.57,0,0,1-2.12-8.92,44.05,44.05,0,0,1,0-9,34.57,34.57,0,0,1,11-22.5,24.24,24.24,0,0,1,24.72-5c7.51,3,12,8.48,13.25,16.49a35.5,35.5,0,0,1,.27,4.13,7.94,7.94,0,0,1-.55,3,6.63,6.63,0,0,1-4.42,4.36c-2.1.62-4.24,1.14-6.39,1.61a121,121,0,0,1-12.4,2.06,65.88,65.88,0,0,1-13.32.22C319.26,497.31,318.5,497.37,317.59,497.37ZM347.37,486c-.08-.83-.12-1.54-.23-2.24a14.65,14.65,0,0,0-2.81-7,9.89,9.89,0,0,0-6.22-3.89,13.72,13.72,0,0,0-4.43,0,15.81,15.81,0,0,0-8.62,4.37,24.6,24.6,0,0,0-6.54,11.09c0,.08.05.19.07.28s.15.16.24.18a4.08,4.08,0,0,0,.61.09,61.21,61.21,0,0,0,12.55-.08,118.21,118.21,0,0,0,14.36-2.41C346.64,486.3,346.92,486.17,347.37,486Z" transform="translate(-4.17 -337.6)"/><path class="cls-2" d="M391,474.1a2.83,2.83,0,0,0,1.7.29,43.58,43.58,0,0,1,8.95,1.26,26.87,26.87,0,0,1,3.46,1.23,7.43,7.43,0,0,1,2.51,1.73,5,5,0,0,1,1.42,4.21,3.79,3.79,0,0,1-2,2.93,2.78,2.78,0,0,1-2.37.26c-1.45-.5-2.91-1-4.35-1.49a28.07,28.07,0,0,0-5.61-1.53,19.8,19.8,0,0,0-5.8-.24c-.3,0-.59.11-1,.19-.21.91-.45,1.79-.63,2.69a53,53,0,0,0-1,13.42,23,23,0,0,0,1.2,6.31,12.92,12.92,0,0,0,2.1,3.9,8.48,8.48,0,0,0,9,3c.89-.2,1.75-.57,2.63-.83a13.47,13.47,0,0,1,2.52-.63c2.71-.25,4,1.18,4.28,3.33a5,5,0,0,1-2.2,5.06,11.25,11.25,0,0,1-3.75,1.69,25,25,0,0,1-9,.47,20,20,0,0,1-3.16-.59,16.38,16.38,0,0,1-11.13-9.54,27.79,27.79,0,0,1-2.12-7.19,48.08,48.08,0,0,1-.61-10.24,59.73,59.73,0,0,1,1-8.21,9.55,9.55,0,0,0,.12-1.06,1.18,1.18,0,0,0-.14-.35,5.47,5.47,0,0,0-1,0c-2.36.41-4.72.85-7.09,1.26a8.52,8.52,0,0,1-3.95-.24,3.41,3.41,0,0,1-2.61-3.82,3.28,3.28,0,0,1,1.17-2.25,8.94,8.94,0,0,1,2.74-1.66,24.48,24.48,0,0,1,5.3-1.51c2.26-.39,4.55-.67,6.82-1,.26,0,.51-.05.76-.1a1,1,0,0,0,.9-.73c.15-.43.32-.86.49-1.29a26.38,26.38,0,0,1,2.4-5,11.15,11.15,0,0,1,2.52-2.87,5.32,5.32,0,0,1,3.73-1.13,3.87,3.87,0,0,1,3.54,3.44,5.52,5.52,0,0,1-.29,2.42c-.37,1-.75,2-1.12,3C391.26,473.22,391.14,473.65,391,474.1Z" transform="translate(-4.17 -337.6)"/><path class="cls-2" d="M131.67,476.29c-1,0-1.89.07-2.8,0a12,12,0,0,1-2.58-.56,15,15,0,0,1-2.53-1.13c-.76-.42-1.46-1-2.23-1.49a4.18,4.18,0,0,0-.58.5,18.8,18.8,0,0,0-2.73,4.82c-.12.34-.19.75-.65.83-.29.05-.42-.3-.47-1a7.32,7.32,0,0,1,.77-3.66c.39-.84.83-1.65,1.26-2.47-.34-.2-.48.09-.63.23a26.5,26.5,0,0,0-3.92,4.61c-.23.35-.48.68-.68,1-.37,0-.5-.18-.49-.37a5.57,5.57,0,0,1,.18-1.36,12.44,12.44,0,0,1,3-4.92l.84-.91c-.27-.27-.46-.07-.59,0-1,.74-1.92,1.5-2.88,2.26-.29.24-.57.5-.88.72a.37.37,0,0,1-.34,0,.43.43,0,0,1-.16-.32.92.92,0,0,1,.09-.49,10.26,10.26,0,0,1,.89-1.36,12.07,12.07,0,0,1,3-2.52l1-.6a.82.82,0,0,0,.39-.75c0-.8,0-1.6,0-2.39a1.47,1.47,0,0,0-.51-1.11c-.66-.71-1.32-1.41-1.92-2.17a9.73,9.73,0,0,1-1.92-3.94,9.36,9.36,0,0,1-.18-1.75,1.37,1.37,0,0,1,1-1.44,12.61,12.61,0,0,1,2.69-.61,16.11,16.11,0,0,1,3.4.14,2.22,2.22,0,0,0,2.13-.7,26.45,26.45,0,0,1,8.2-5.81,23.52,23.52,0,0,1,5.3-1.62,9.2,9.2,0,0,1,1.89-.13,1.31,1.31,0,0,0,1.39-.84,13.5,13.5,0,0,1,1.89-2.84,18,18,0,0,1,4.69-4,7.18,7.18,0,0,1,1.25-.6,1.29,1.29,0,0,1,1.58.44A6.55,6.55,0,0,1,150,440.7a33.36,33.36,0,0,1,.55,7.92,6.46,6.46,0,0,0,0,.88,1.26,1.26,0,0,0,.23.69,8.16,8.16,0,0,1,1.65,2.74,5.93,5.93,0,0,0,.73-.19,13.87,13.87,0,0,1,8.53-.81,9.27,9.27,0,0,1,1.44.46c.13.05.22.22.31.32-.24.49-.66.43-1,.43a26.81,26.81,0,0,0-4.39.48,6.35,6.35,0,0,0-2.1.7c.07.34.27.28.41.24a14.12,14.12,0,0,1,4.15-.26,11.86,11.86,0,0,1,5.07,1.41,8.68,8.68,0,0,1,1.3,1,.4.4,0,0,1,0,.34.41.41,0,0,1-.3.2,5.18,5.18,0,0,1-.87-.11,30.69,30.69,0,0,0-6.76-.72,14.13,14.13,0,0,0-3.11.51c-.07,0-.11.11-.19.2.23.32.6.25.9.26a11.77,11.77,0,0,1,4.13,1.1,7.62,7.62,0,0,1,2.21,1.45,8.35,8.35,0,0,1,1.07,1.23c.37.51.41.92.19,1-.38.16-.65-.13-.91-.3a15.55,15.55,0,0,0-4.88-2,18.86,18.86,0,0,0-2.38-.29c-.88-.08-1.76-.12-2.65-.17-.07,0-.15.05-.3.1a4.58,4.58,0,0,0-.06.56,9.77,9.77,0,0,1-1.36,4.43,18.8,18.8,0,0,1-4.35,5.37,3,3,0,0,0-.38.33.56.56,0,0,0-.05.7,3,3,0,0,0,.28.41A83.06,83.06,0,0,1,153.78,482a167.45,167.45,0,0,1,7.4,16c.51,1.25,1,2.51,1.49,3.75a4.27,4.27,0,0,0,.48.75,5,5,0,0,0,.61-.3c3.22-2.17,6.32-4.49,9.33-6.93a120.18,120.18,0,0,0,12.76-12,125.24,125.24,0,0,0,14.76-19.37,86.62,86.62,0,0,0,6.19-11.85,102.46,102.46,0,0,0,3.65-10.21c.81-2.75,1.54-5.52,2.11-8.32.46-2.22.86-4.46,1.18-6.71.25-1.79.38-3.6.62-5.39.1-.79.13-1.6.17-2.4a91.77,91.77,0,0,0-.05-11.49,50.89,50.89,0,0,0-.69-6c-.26-1.32-.39-2.66-.66-4-.3-1.48-.65-3-1-4.42a71.77,71.77,0,0,0-4.31-11.71,72.64,72.64,0,0,0-6.93-11.59,64.16,64.16,0,0,0-7.67-8.87,42.72,42.72,0,0,0-12.82-8.64,35.51,35.51,0,0,0-8-2.37,43.09,43.09,0,0,0-9.56-.65,45.29,45.29,0,0,0-17.46,4.62,49.08,49.08,0,0,0-12.57,8.8,96.41,96.41,0,0,0-15.74,19.52c-1.37,2.22-2.77,4.42-4.09,6.67a67,67,0,0,0-5,10.33c-.6,1.61-1.33,3.18-2,4.77a6.32,6.32,0,0,1-.47.89,3,3,0,0,1-2.4,1.43,5.72,5.72,0,0,1-5.4-3.27,2.8,2.8,0,0,1-.13-1.49,19.89,19.89,0,0,1,1.15-4.77c1.15-2.85,2.26-5.72,3.61-8.48,1.88-3.81,4-7.53,6-11.28.34-.63.75-1.22,1.15-1.82,2-3.09,4.13-6.15,6.09-9.29a63.3,63.3,0,0,1,8.71-10.8,59.07,59.07,0,0,1,16.11-11.62,56.08,56.08,0,0,1,11.45-4.3,44.61,44.61,0,0,1,12.11-1.59c1.18,0,2.36,0,3.54,0a34.78,34.78,0,0,1,6,.75,54.07,54.07,0,0,1,6,1.5,57,57,0,0,1,11.2,4.92,66.88,66.88,0,0,1,13.76,10.43,63.69,63.69,0,0,1,11.4,15.05A84.12,84.12,0,0,1,222.15,385a61.6,61.6,0,0,1,2,7.68c.42,2.19.91,4.37,1.23,6.57s.48,4.19.63,6.28.25,4.12.3,6.18a51.14,51.14,0,0,1-.18,6.19c-.14,1.38-.09,2.78-.27,4.16-.25,1.92-.43,3.84-.7,5.76-.52,3.59-1.22,7.14-2.06,10.65a107.77,107.77,0,0,1-3.29,11,104.76,104.76,0,0,1-8.71,18.61,138.87,138.87,0,0,1-22.2,27.9,127.18,127.18,0,0,1-17.16,13.9c-1.75,1.18-3.53,2.3-5.3,3.45l-.63.41a.73.73,0,0,0-.36.76,9.19,9.19,0,0,1-.39,4c-.21.91-.46,1.8-.59,2.71a15.3,15.3,0,0,1-2.61,6.25,18,18,0,0,1-9.71,7.09A32.58,32.58,0,0,1,139.6,536a19.91,19.91,0,0,1-9.48-3.18,23.38,23.38,0,0,1-8.26-9.19,9.13,9.13,0,0,1-1-3.51,11.18,11.18,0,0,0-.13-1.13,27.33,27.33,0,0,1,0-8.42,23.3,23.3,0,0,1,1.69-5.67c1.38-3.44,2.82-6.85,4.2-10.29a41.65,41.65,0,0,0,1.7-5.28c.9-3.55,1.85-7.08,2.79-10.62.15-.56.33-1.13.47-1.7A3.31,3.31,0,0,0,131.67,476.29Z" transform="translate(-4.17 -337.6)"/><path class="cls-2" d="M167.79,410.38c-.33-.49-.53-.8-.74-1.1a11.49,11.49,0,0,1-1.6-3.14,4.47,4.47,0,0,1,0-3.2,2.61,2.61,0,0,0,.09-.47c-.27-.25-.58-.51-.88-.79-.53-.5-.59-.67-.26-1.31s.13-1.18.6-1.62c.06-.06,0-.25,0-.36a1,1,0,0,1,.1-1,.48.48,0,0,0,.09-.36c-.25-.9.4-1.59.58-2.39a6.55,6.55,0,0,1,.35-.93c.07-.15.12-.38.23-.43.56-.22.5-.85.84-1.24l1.36.23.55,1.11.78-.29a3.52,3.52,0,0,1,.17.76c0,.46,0,.92-.05,1.39a6.53,6.53,0,0,0,1,3.84c.52.86,1.1,1.69,1.69,2.51a21.65,21.65,0,0,1,3,5.52,4.7,4.7,0,0,0,.47.8c.25-.21.45-.36.62-.53.53-.54,1-1.1,1.59-1.62a3,3,0,0,1,1-.7,1.37,1.37,0,0,0,.87-.84c.26-.56.57-1,1.29-1a.82.82,0,0,0,.56-.43,1.46,1.46,0,0,1,1.28-.87,11.11,11.11,0,0,1,.68-1.08c.28-.35.71-.13,1-.16a8.19,8.19,0,0,1,1-.85c.39-.26.69.18,1.12.25.27-.26.56-.56.88-.82a.57.57,0,0,1,.7-.09.58.58,0,0,1,.3.65c-.08.44-.24.87-.42,1.5.35-.33.57-.54.81-.73a.66.66,0,0,1,.81-.15.64.64,0,0,1,.28.66c-.28,2.29-1,4.36-3,5.71-1,.67-2.1,1.24-3.16,1.84s-2.21,1.21-3.31,1.84a2.91,2.91,0,0,0-.58.47.32.32,0,0,0,.16.51,3.22,3.22,0,0,0,.75.1c.29,0,.58-.11.87-.12a2.36,2.36,0,0,1,1.94.74,1.43,1.43,0,0,1,.48,1.25,14.41,14.41,0,0,1-.46,1.83.46.46,0,0,1-.74.16c-.16-.14-.27-.35-.44-.44a1.13,1.13,0,0,0-.7-.16c-1.52.32-3,.73-4.55,1a10.62,10.62,0,0,1-5.86-.17,21.78,21.78,0,0,0-4.37-1.22,17,17,0,0,0-1.87-.23,19.32,19.32,0,0,1-4-.52,7.53,7.53,0,0,1-1.65-.58,1.73,1.73,0,0,1-1-1.11.86.86,0,0,1,.78-1.17,3.71,3.71,0,0,1,.88,0c.79.1,1.59.2,2.37.34a4.92,4.92,0,0,0,2.13-.11C166.06,410.93,166.81,410.68,167.79,410.38Z" transform="translate(-4.17 -337.6)"/><path class="cls-2" d="M143.11,405.28a9.29,9.29,0,0,0,.84-.44c.25-.15.48-.35.74-.48a1.29,1.29,0,0,1,1.76.48,2.31,2.31,0,0,1,.34,1.57,6.28,6.28,0,0,0-1.26.44,5.68,5.68,0,0,0-.89.88c-.45.45-.9.88-1.34,1.33a7.92,7.92,0,0,1-4.12,2.32,13.11,13.11,0,0,0-3.41,1.27c-.94.47-1.88.94-2.85,1.34a4.34,4.34,0,0,1-1.35.22,1.09,1.09,0,0,1-.6-.17.67.67,0,0,1-.11-1.15,6.69,6.69,0,0,1,1.45-.76A5.33,5.33,0,0,0,135,409.7c-.22-.15-.41-.31-.62-.43-.44-.24-.91-.43-1.34-.69a4.94,4.94,0,0,1-2.14-2.6.87.87,0,0,0-.3-.17,1.5,1.5,0,0,1-1.35-1.44,7.25,7.25,0,0,0-.72-1.86,7.21,7.21,0,0,1-.55-3.07c0-.64.35-.9,1-.84.2,0,.4.15.6.15a3.28,3.28,0,0,0,.63-.14c.2.3.39.57.56.85a5.47,5.47,0,0,0,2.72,2.35l1.29.53a18.41,18.41,0,0,1,3.67,1.94,6,6,0,0,0,.83.46c.11-.41.18-.73.28-1a14.18,14.18,0,0,1,.52-1.68,2.65,2.65,0,0,0,.27-1.08,2.78,2.78,0,0,1,.23-.83,8,8,0,0,0,.7-2.24,7.39,7.39,0,0,1,.94-1.73,2,2,0,0,0,.81-.93c.3-.51.47-.49,1.11,0l1-.27a5.42,5.42,0,0,1,.4,5.21c-.57,1.22-1.26,2.38-1.88,3.57A3.29,3.29,0,0,0,143.11,405.28Z" transform="translate(-4.17 -337.6)"/><path class="cls-2" d="M156.64,387.08a1.42,1.42,0,0,0-.23-.34,3.75,3.75,0,0,1-1.5-2.12.85.85,0,0,0-.15-.35c-1-1.17-.79-2.59-.71-4,0-.74.46-.89,1.16-.59a1.49,1.49,0,0,1,.83.89,6.38,6.38,0,0,0,.66,1.05,2,2,0,0,0,.37.35l3.09,2.5a16.37,16.37,0,0,0,1.19-1.75c.17-.29.33-.58.51-.87a6.09,6.09,0,0,1,2.19-2.39,1.51,1.51,0,0,1,.34.08c1,.45,1.09.57,1,1.69a3.49,3.49,0,0,1-1,2.13c-.52.6-1.07,1.17-1.62,1.76.23.42.55.16.81.18a.92.92,0,0,1,1,.82c.09.38,0,.6-.42.79-.68.33-1.37.65-2,1a6.18,6.18,0,0,1-3.24.92,8.53,8.53,0,0,0-2.74.35,6.24,6.24,0,0,1-1.62.18,1,1,0,0,1-.6-.15.74.74,0,0,1-.3-.5.67.67,0,0,1,.33-.47c.26-.12.58-.11.85-.21q.76-.29,1.5-.63C156.46,387.39,156.54,387.21,156.64,387.08Z" transform="translate(-4.17 -337.6)"/></svg>