<svg id="Layer_1" data-name="Layer 1" xmlns="http://www.w3.org/2000/svg" viewBox="0 0 4937.4 4187.1"><defs><style>.cls-1{fill:#ff8f9c;}.cls-2{fill:#292839;stroke:#1d1d1b;stroke-miterlimit:10;}</style></defs><path class="cls-1" d="M1459.34,1674.42S1636,294,2889.09,807.53s209.53,2843.06,209.53,2843.06,1068.2-1569.43,484.79-2613S1151.21,273.43,1459.34,1674.42Z" transform="translate(-32.36 -407.28)"/><path class="cls-1" d="M1307.33,1563.49S337.73,1785.35,346,2828.89c97.1,652.35,514.71,943.55,587.5,953.17L915,3987.48s-1029.17-353.33-864.83-1553C173.39,1760.7,1019.74,1489.54,1307.33,1563.49Z" transform="translate(-32.36 -407.28)"/><path class="cls-2" d="M2587.18,917.89c-12.12,59.94-14.33,114.12,0,158.69,53-68.74,136.15-107.86,255.4-111.58-75.37,74.08-126.26,158.33-146.29,255.4,121.22,109.28,203.69,232.65,262.84,364.51,115.15,80.88,228.5,124.47,339.71,124,9.62,150.86-33,283.16-190.93,374.43-104.36-18.07-221.3-33.68-362-44.63-154.27,62.69-168,206.31-91.75,401.7,83.59,156.37,142.24,282.53,156.22,354.59,24.69,105.71,19.61,196.17,7.44,287.63-100.12,362-232.18,615.22-369.47,850.52-40.21,113.41-53,214,5.54,260.94,35.1,28.19,106.86,26.07,182.91,26.7,205.75-56.81,399.19-124.66,791-178.53,360.91-43.85,1110.88,226.66,1110.88,226.66s210.08,74.49,429,323.82c-296.67-153.57-592.77-265.78-887.71-292.6-315.82-63.28-616.07-55.9-897.63,0-415.4,73.53-769.28,163.09-1093.53,260.36-295.44,40.26-540.41-9.67-756.29-111.58-186.48-93.31-326.89-245.44-411.62-468.66-43.09-131.72-9.9-293.39,76.87-476.09,127.33-205.49,286.85-379,560.4-438.89,9.08-71.25-36.08-119.71-121.5-151.26-148,27.78-278.06-11.28-374.43-176.06-5.77-38.79-.89-74.58,17.36-106.62L1369.68,2304c.71-50.32-17.68-98.59-64.47-143.82,37.27-14.1,77.54,2.75,119,32.23-6.26-45.35-23.58-87-47.11-126.46,181.63,26.17,523.86,252.75,714.13,557.92,72.77,120.17,138.61,256.11,136.8,483.53-1.4,166.48-37.87,320.23-97.74,485.39-90.57,186.12-145.52,249.28-205.19,409.76-9.75,41.22-15.31,84.25-7.44,163.66,42.47,104.68,109.58,141.39,183.49,166.13-68.06-69-129.82-128.31-119-205.81-15-84.55,36.82-209.19,87.41-282.06,37.7-54.3,163.83-320.71,196.92-476.71,24.44-181.95,17-348.23-14.05-515.76-38.59-131.26-100.88-245.7-188.45-342.19-89.89-130.21-198-242.7-329.79-332.27-38.3-60.29-27.54-153.44,22.31-272.77,60-161.51,138.62-318.91,240.53-471.13C2165.71,1222.26,2369.65,1060.51,2587.18,917.89Z" transform="translate(-32.36 -407.28)"/></svg>