<svg id="Layer_1" data-name="Layer 1" xmlns="http://www.w3.org/2000/svg" viewBox="0 0 4771.86 4245.46"><defs><style>.cls-1{fill:#aaaab2;}.cls-2{fill:#fec5cc;}</style></defs><path class="cls-1" d="M2344.51,2062.7c-127.51-125.91-307.86-149.67-519-114-44.22-47.6-149.6-84.51-380.73-99.43-209.78,9.31-330.93,146.5-368.6,337.08-1,108.59,15.58,192.42,50.92,249.77,18.27,13.6,38.27,19.38,60.63,14.55,123.65-62.79,172-132.49,230.37-201.27,71.31-92.5,134.14-146.48,189.15-164.9-78.51,82.44-146.16,182.47-208.55,291-38.89,102.46-36.2,191.58,2.43,269.18,57.89,108.46,165.51,170.56,288.58,218.25-298.07,514.8-519.46,998.18-409.83,1345.88-555.82-330.76-815-741.27-907-1196.74-82.19-537.41,57.53-893,301.91-1162.8,364.92-308.73,792.9-339.22,1291.33-46.88,50.11,12.12,90.37-6.58,109.12-41.63,24-37.69,21-92.56-17.17-142.88C1774.38,1410.46,1459.22,1298,1075,1360.66c-415.64,109.75-730.47,382.73-902.1,887.55-97.68,392.3-78.75,786.19,94.57,1182.2,178.55,359.06,434,623.5,731.14,836.63,301,220.78,550.52,309.22,778.44,341.93,236.66,30.27,415.69-3.19,545.63-90.94Q2669.16,4321,2606.88,3914.2c16.51-81.23-192-515.31-287.83-978.49,72.66-3.92,125.59-32.65,163.69-80,63.83-56.61,81.52-123,83.66-192.79,15.06-184.46-32.45-305.12-87.3-418.31,53.2,18.32,106.49,70.26,160.05,218.25,58.67,88.2,114.71,167.88,152.78,189.15,20.34,5.53,40.86,7.41,61.84,0,57.6-51.44,92.12-129.78,105.48-232.8-33.58-174.34-107.32-276.34-207.34-331C2642.69,2040.13,2510,2027,2344.51,2062.7Z" transform="translate(-114.07 -377.27)"/><path class="cls-2" d="M3206.61,2511.94c-84.48,34.41-150.22,91.87-191,180-138.68,7.73-264.51,54.45-363.76,181.88-55.65-8.29-111.4-10-167.32,0-24.72,7.49-32.14,23.45-25.26,65.48,21.87,60.05,60.36,109.3,103.46,149.13-5.29,22.54-3.71,47.78,1.82,74.57-51.68,21-88.29,62.92-114.58,119,42.2-41.62,86.11-72.58,132.77-86.3-73.79,43.93-123.34,171.15-123.68,190.16-5,3.08,76.22-104.16,147.79-150.15-53.21,77.71-67.74,135.44-54.22,182.89,27.88-71.19,51.32-124.16,79.22-153.79,58.07,69,140.13,86.94,236.44,74.57-62.88,205.73-96.4,405.59-167.33,540.18-102.35,183.47-128.65,349.44-49.11,491.06,84.75,177.76,223.57,214.35,363.76,247.36,130.79,13.28,236.72-2.36,323.74-40,106.37-50,178.17-126.34,212.79-231,21.21-59.42,29.08-127.1,25.46-201.88C3872,4011.24,4172.46,3729,4478.53,3314c286.91-366,399.18-858.31,407.4-1425.91C4859.86,1263.38,4591.24,829.4,4139,539.79c-385.64-224.91-780.76-208.31-1183.41,0-249.82,181-447.79,386.33-572.31,625.65-112.07,202.29-207,388.3-269.18,543.21-6.08,53.41,14.54,87.71,43.65,117.61,57.82,30.32,106.56,22.72,147.93-15.76l97-220.68c140-293.68,278-492.71,414.68-632.93C2967.13,814.59,3122.7,703.08,3290.27,655c202.61-67.53,406.32-53.36,611.1,40,188.37,83.32,376.91,190.65,567.46,563.82,138.32,258.13,224.69,562.9,167.32,996.68-63.43,325.43-158.45,619.54-312.82,854.82Q4091.64,3453.69,3817.71,3696c-90.36,86.27-184.15,161.26-280.09,229.17-108.9-257.32-232.86-489-365.57-705.68,97.29-72.79,143.11-154.28,141.86-243.72,96.32,2.91,173,27.15,238.26,63.66-15.46-52.36-80.69-90.12-234.62-101.85,103.49-27.49,203.23-22.06,301.92-7.28-69.43-46.47-151.32-79-305.56-30.92,52.67-37.07,140.57-50.87,238.26-58.2-54.67-25.14-117.66-42-251,10.92-5-32-20.24-58.32-43.65-80,4.84-74.33,5.34-146.05-14.55-205.52C3241.49,2542.05,3227.7,2524.84,3206.61,2511.94Z" transform="translate(-114.07 -377.27)"/><path class="cls-2" d="M3858.14,1836.64c-6.55-9.77-10.56-16-14.81-22.05-13.62-19.45-24.75-40-31.95-62.85-6.87-21.8-8.41-42.85.6-64.21.95-2.24.94-4.89,1.73-9.4-5.45-4.89-11.67-10.24-17.62-15.87-10.57-10-11.72-13.25-5.3-26.21,5.17-10.43,2.63-23.58,12.18-32.41,1.24-1.14.8-5,.06-7.21-2.25-6.84-2.23-13.09,2.11-19.24,1.35-1.91,2.45-5.06,1.86-7.12-5.18-18.21,7.86-31.94,11.52-47.93,1.48-6.42,4.57-12.5,7.11-18.65,1.27-3.06,2.27-7.69,4.58-8.61,11.18-4.46,9.91-17.07,16.77-24.86l27.2,4.67c3.73,7.49,7.39,14.84,11.07,22.21l15.57-5.78c1.43,5.81,3.43,10.44,3.52,15.1.19,9.26-.63,18.54-1.11,27.81-1.48,28,6.54,53.49,20.86,77,10.53,17.27,22.16,33.89,33.84,50.43,24.41,34.56,47,70,60.58,110.55,1.75,5.21,5.57,9.73,9.31,16,5.13-4.33,9.07-7.21,12.48-10.63,10.72-10.77,20.87-22.12,32-32.47,6.06-5.65,12.95-11.6,20.55-14.08,9.26-3,13.93-8.82,17.49-16.72,5.09-11.3,11.42-20.29,25.88-20.64,3.88-.09,9.23-4.81,11.15-8.75,5.42-11.11,14.18-16.29,25.66-17.32,4.72-7.66,8.45-15.2,13.55-21.64,5.57-7,14.21-2.75,20.6-3.2,7-6.26,12.67-12.59,19.53-17.12,7.84-5.2,13.91,3.57,22.52,5,5.41-5.13,11.19-11.09,17.49-16.43,4-3.45,9.09-4.44,14.12-1.68a11.69,11.69,0,0,1,6.07,12.89c-1.78,8.85-4.87,17.45-8.54,30,7.1-6.42,11.5-10.68,16.2-14.58s10.11-6.47,16.19-3c5,2.89,6.25,8,5.63,13.15-5.53,46-20.47,87.42-61,114.39-20.31,13.52-42.07,24.88-63.35,36.91-22,12.44-44.34,24.38-66.35,36.85-4.3,2.44-8,6-11.6,9.53-3,2.91-1,9.28,3.27,10.23a60.17,60.17,0,0,0,14.87,1.86c5.86-.18,11.66-2.12,17.52-2.39,15-.68,28.36,3.76,38.93,14.81,6.66,7,11.26,15.52,9.61,25.16-2.11,12.4-5.6,24.61-9.27,36.68-1.79,5.88-9.8,7.3-14.83,3.1-3.21-2.67-5.37-7-8.9-8.8-4.16-2.15-9.67-4.17-13.94-3.25-30.47,6.59-60.63,14.67-91.17,20.88-39.21,8-78.44,10.62-117.32-3.32-28.55-10.24-57.23-20.38-87.55-24.4-12.54-1.66-25.07-4.48-37.64-4.67-27.19-.41-53.84-4.37-80.18-10.36a168,168,0,0,1-33.21-11.7c-9.31-4.33-16.44-11.79-19.36-22.26-3.43-12.32,3-22.27,15.66-23.52a79.39,79.39,0,0,1,17.61.7c15.89,2,31.81,4,47.57,6.75a96.1,96.1,0,0,0,42.63-2.15C3823.61,1847.73,3838.61,1842.67,3858.14,1836.64Z" transform="translate(-114.07 -377.27)"/><path class="cls-2" d="M3363.76,1734.55c8.32-4.3,12.75-6.29,16.87-8.8,5-3,9.5-7.11,14.72-9.73,13.63-6.84,26.56-3.11,35.28,9.58,5.46,7.93,6.75,13.73,6.93,31.43-8.41,2.81-17.74,4.36-25.25,8.9-7,4.22-12,11.67-18,17.63-8.92,8.93-18,17.71-26.85,26.7-23.05,23.37-50,39.87-82.44,46.43-24.18,4.9-46.57,14.18-68.42,25.37-18.72,9.59-37.68,18.84-57.11,26.86-8.26,3.42-18,3.83-27.07,4.55-3.87.3-8.29-1.5-11.88-3.43-9-4.87-10.64-17.49-2.25-23.19a145.09,145.09,0,0,1,29-15.17c23.93-9.26,40.86-25.77,54.3-48.7-4.37-3-8.13-6.18-12.34-8.46-8.88-4.81-18.32-8.63-27-13.83-20-12-29.13-23.59-42.77-52.2-1.72-1-3.73-3-6-3.43-16.36-2.81-25.19-12.49-27.06-28.78-1.57-13.71-9.38-25-14.42-37.37-8.05-19.74-12.1-40.2-11.06-61.44.63-12.85,7-18,19.77-16.79,4.11.37,8.07,2.87,12.13,3s7.94-1.7,12.6-2.82c4,6,7.86,11.43,11.29,17.16,13,21.69,30.91,37.55,54.5,46.92,8.61,3.42,17.12,7.06,25.66,10.65,25.67,10.81,50.84,22.51,73.54,39,4.54,3.3,9.92,5.44,16.72,9.08,2.16-8.19,3.7-14.53,5.52-20.78,3.3-11.28,5.88-22.89,10.47-33.63,3.06-7.12,5.41-13.71,5.5-21.6.07-5.58,2.45-11.3,4.55-16.68,5.72-14.67,12.57-29,14-45,.3-3.43,15.95-33.18,18.86-34.63,8.11-4,12-11.13,16.34-18.51,6-10.29,9.35-10,22.12.65l19.21-5.37c19.14,34.36,25,68.82,8.1,104.48-11.52,24.33-25.28,47.58-37.67,71.51C3370.05,1712,3364.55,1719.68,3363.76,1734.55Z" transform="translate(-114.07 -377.27)"/><path class="cls-2" d="M3634.8,1369.92c-1.86-2.89-2.73-5.6-4.58-6.92-15-10.72-25.18-24.69-30.09-42.5-.67-2.41-1.47-5.1-3.07-6.89-21-23.58-15.79-52.06-14.11-79.43.91-14.75,9.21-17.81,23.21-11.76,8.33,3.6,13.19,9.34,16.68,17.72,3.16,7.6,8.47,14.35,13.26,21.18,1.88,2.7,4.8,4.72,7.41,6.84,20.15,16.37,40.33,32.68,61.83,50.09,9.14-11.08,16.38-23.11,23.79-35,3.54-5.69,6.68-11.64,10.23-17.33,16.89-27.12,16.92-27.11,43.93-48,2,.44,4.58.58,6.78,1.54,20.7,9,21.91,11.44,20.77,33.93-.87,17-9.05,30.5-19.86,42.68-10.59,11.93-21.62,23.46-32.56,35.27,4.69,8.36,11.12,3.16,16.27,3.67,11.73,1.19,16.79,5.15,19.42,16.25,1.84,7.78-.71,12.08-8.5,15.88-13.59,6.64-27.32,13.07-40.46,20.52-20.19,11.47-41.14,19-64.81,18.37-18.58-.47-36.88,1.47-55,7.07-10.24,3.17-21.59,3.07-32.48,3.66a20,20,0,0,1-12-3.11c-3-2.14-6-6.65-5.95-10s3.41-8,6.53-9.4c5.2-2.43,11.6-2.14,17.07-4.15,10.2-3.74,20.24-8,30-12.72C3631.26,1376.11,3632.75,1372.49,3634.8,1369.92Z" transform="translate(-114.07 -377.27)"/></svg>