<svg id="Layer_1" data-name="Layer 1" xmlns="http://www.w3.org/2000/svg" viewBox="0 0 4771.86 4245.46"><defs><style>.cls-1{fill:#292839;}.cls-2{fill:#ff8f9c;}</style></defs><path class="cls-1" d="M2344.51,2062.7c-127.51-125.91-307.86-149.67-519-114-44.22-47.6-149.6-84.51-380.73-99.43-209.78,9.31-330.93,146.5-368.6,337.08-1,108.59,15.58,192.42,50.92,249.77,18.27,13.6,38.27,19.38,60.63,14.55,123.65-62.79,172-132.49,230.37-201.27,71.31-92.5,134.14-146.48,189.15-164.9-78.51,82.44-146.16,182.47-208.55,291-38.89,102.46-36.2,191.58,2.43,269.18,57.89,108.46,165.51,170.56,288.58,218.25-298.07,514.8-519.46,998.18-409.83,1345.88-555.82-330.76-815-741.27-907-1196.74-82.19-537.41,57.53-893,301.91-1162.8,364.92-308.73,792.9-339.22,1291.33-46.88,50.11,12.12,90.37-6.58,109.12-41.63,24-37.69,21-92.56-17.17-142.88C1774.38,1410.46,1459.22,1298,1075,1360.66c-415.64,109.75-730.47,382.73-902.1,887.55-97.68,392.3-78.75,786.19,94.57,1182.2,178.55,359.06,434,623.5,731.14,836.63,301,220.78,550.52,309.22,778.44,341.93,236.66,30.27,415.69-3.19,545.63-90.94Q2669.16,4321,2606.88,3914.2c16.51-81.23-192-515.31-287.83-978.49,72.66-3.92,125.59-32.65,163.69-80,63.83-56.61,81.52-123,83.66-192.79,15.06-184.46-32.45-305.12-87.3-418.31,53.2,18.32,106.49,70.26,160.05,218.25,58.67,88.2,114.71,167.88,152.78,189.15,20.34,5.53,40.86,7.41,61.84,0,57.6-51.44,92.12-129.78,105.48-232.8-33.58-174.34-107.32-276.34-207.34-331C2642.69,2040.13,2510,2027,2344.51,2062.7Z" transform="translate(-114.07 -377.27)"/><path class="cls-2" d="M3206.61,2511.94c-84.48,34.41-150.22,91.87-191,180-138.68,7.73-264.51,54.45-363.76,181.88-55.65-8.29-111.4-10-167.32,0-24.72,7.49-32.14,23.45-25.26,65.48,21.87,60.05,60.36,109.3,103.46,149.13-5.29,22.54-3.71,47.78,1.82,74.57-51.68,21-88.29,62.92-114.58,119,42.2-41.62,86.11-72.58,132.77-86.3-73.79,43.93-123.34,171.15-123.68,190.16-5,3.08,76.22-104.16,147.79-150.15-53.21,77.71-67.74,135.44-54.22,182.89,27.88-71.19,51.32-124.16,79.22-153.79,58.07,69,140.13,86.94,236.44,74.57-62.88,205.73-96.4,405.59-167.33,540.18-102.35,183.47-128.65,349.44-49.11,491.06,84.75,177.76,223.57,214.35,363.76,247.36,130.79,13.28,236.72-2.36,323.74-40,106.37-50,178.17-126.34,212.79-231,21.21-59.42,29.08-127.1,25.46-201.88C3872,4011.24,4172.46,3729,4478.53,3314c286.91-366,399.18-858.31,407.4-1425.91C4859.86,1263.38,4591.24,829.4,4139,539.79c-385.64-224.91-780.76-208.31-1183.41,0-249.82,181-447.79,386.33-572.31,625.65-112.07,202.29-207,388.3-269.18,543.21-6.08,53.41,14.54,87.71,43.65,117.61,57.82,30.32,106.56,22.72,147.93-15.76l97-220.68c140-293.68,278-492.71,414.68-632.93C2967.13,814.59,3122.7,703.08,3290.27,655c202.61-67.53,406.32-53.36,611.1,40,188.37,83.32,376.91,190.65,567.46,563.82,138.32,258.13,224.69,562.9,167.32,996.68-63.43,325.43-158.45,619.54-312.82,854.82Q4091.64,3453.69,3817.71,3696c-90.36,86.27-184.15,161.26-280.09,229.17-108.9-257.32-232.86-489-365.57-705.68,97.29-72.79,143.11-154.28,141.86-243.72,96.32,2.91,173,27.15,238.26,63.66-15.46-52.36-80.69-90.12-234.62-101.85,103.49-27.49,203.23-22.06,301.92-7.28-69.43-46.47-151.32-79-305.56-30.92,52.67-37.07,140.57-50.87,238.26-58.2-54.67-25.14-117.66-42-251,10.92-5-32-20.24-58.32-43.65-80,4.84-74.33,5.34-146.05-14.55-205.52C3241.49,2542.05,3227.7,2524.84,3206.61,2511.94Z" transform="translate(-114.07 -377.27)"/><path class="cls-2" d="M3296.61,1411.38s46.82,1.51,67.74,21.33c0,0,87.32,91.37,158,22.69,6.18-6,18.5-18.19,31.55-17.17,6.66.53,18.78-1,26.4-7.68,4.62.28,9.54.45,9.54.45,1-.11,1.7-1.52,1.7-1.52,3.38-.17,15.17,3.63,15.17,3.63-3.09-8.26-13.06-16.51-19.11-20.93,0-9.6-4.52-26.36-36.59-26.33-10,0-18.79,2.34-29.34,1.92,12.38-26.91,37.62-75.33,63.21-85.8,0,0-20-6.11-51.72,12.65,0,0,1.56-9.35,6.23-12.38,0,0-20.12,1.91-36.83,20.56,0,0,5.29-14.82,8.52-16.62,0,0-33.5,21.84-51,51.52-30.51-21.71-77.52-56.58-92-75.12,0,0-16.45,16.1,14.36,48.12,0,0-8.88-4.39-13.44-10.93,0,0,1.11,23.48,16.84,37.14,0,0-9.77-4.08-12-7.06,0,0,4,19.36,13.68,27.17,0,0-21.33,11.91-41.63,6.81l-99-33.48s5.82,19.81,33.92,33.61c0,0-28.81,3-58.56-6.35C3222.28,1377.61,3241.79,1405.17,3296.61,1411.38Z" transform="translate(-114.07 -377.27)"/><path class="cls-2" d="M2964.32,2011.82s35.29-59.57,75.86-72.55c0,0,180.52-48,141.92-188.54-3.37-12.27-10.38-36.91.24-53.09,5.42-8.24,12-25.05,8.84-39.65,3.66-5.79,7.38-12,7.38-12,.6-1.42-.76-3.27-.76-3.27,2.19-4.5,15.5-17.08,15.5-17.08-12.9-1.87-30.67,5.17-40.71,9.85-12.41-6.86-37.36-12.91-60.16,28.65-7.13,13-10.35,26-18.41,39.37-26-35.2-70.77-102.37-66.11-143,0,0-22.19,21.61-20.45,76,0,0-11-8.68-11.59-16.88,0,0-11.86,27.42.4,62.34,0,0-15.42-17.4-15.46-22.87,0,0,4.43,58.94,30.38,102.8-49.84,24.05-128.48,60.11-162.81,65.69,0,0,9.14,32.77,72.53,15.67,0,0-12,8.37-23.72,9.62,0,0,31.21,15.28,60.09,4.64,0,0-12.23,9.75-17.67,10.5,0,0,27.95,8.55,44.93,1.63,0,0,.23,36.11-20.82,58.77l-113.83,104.32s29.79,6.57,67.67-20c0,0-16.61,39.46-49.91,71.33C2867.65,2084.05,2917.24,2078.4,2964.32,2011.82Z" transform="translate(-114.07 -377.27)"/><path class="cls-2" d="M3429.21,1812.54s87.49,52.59,106.25,112.51c0,0,69.11,266.54,276.59,211,18.13-4.86,54.51-15,78.26.84,12.11,8.06,36.82,18,58.38,13.4,8.5,5.45,17.69,11,17.69,11,2.09.89,4.83-1.08,4.83-1.08,6.61,3.27,25,23,25,23,2.89-19-7.32-45.26-14.14-60.1,10.23-18.24,19.39-55-41.67-89-19.12-10.64-38.23-15.5-57.86-27.5,52.12-38.06,151.56-103.37,211.37-96.13,0,0-31.65-32.91-111.84-30.85,0,0,12.9-16.12,25-16.93,0,0-40.31-17.73-91.9,0,0,0,25.8-22.57,33.86-22.58,0,0-86.93,6-151.81,43.83-35-73.7-87.42-189.94-95.32-240.61,0,0-48.4,13.17-23.78,106.78,0,0-12.23-17.77-14-35.06,0,0-22.8,45.86-7.39,88.54,0,0-14.26-18.12-15.31-26.15,0,0-12.86,41.12-2.82,66.22,0,0-53.23,0-86.44-31.25l-152.73-168.75s-9.95,43.85,28.85,99.93c0,0-58-24.85-104.68-74.24C3323.64,1669.37,3331.51,1742.52,3429.21,1812.54Z" transform="translate(-114.07 -377.27)"/></svg>